<svg width="18" height="18" viewBox="0 0 18 18" fill="none" xmlns="http://www.w3.org/2000/svg">
<path d="M9 0L7.1 5.8C7.00271 6.10122 6.83531 6.37504 6.61157 6.59895C6.38783 6.82287 6.11414 6.99048 5.813 7.088L0 9L5.8 10.9C6.10122 10.9973 6.37504 11.1647 6.59895 11.3884C6.82287 11.6122 6.99048 11.8859 7.088 12.187L9 18L10.9 12.2C10.9973 11.8988 11.1647 11.625 11.3884 11.401C11.6122 11.1771 11.8859 11.0095 12.187 10.912L18 9L12.2 7.1C11.8988 7.00271 11.625 6.83531 11.401 6.61157C11.1771 6.38783 11.0095 6.11414 10.912 5.813L9 0Z" fill="#D9D9D9"/>
</svg>
