<svg width="119" height="149" viewBox="0 0 119 149" fill="none" xmlns="http://www.w3.org/2000/svg">
<path d="M114.889 41.7725L113.028 48.8791C112.52 51.2479 112.858 53.786 114.043 55.9856L117.596 62.4154C119.796 66.1378 119.119 71.0447 115.735 74.0904L110.32 78.9973C108.459 80.6893 107.444 83.0582 107.275 85.427L106.936 92.7027C106.598 97.102 103.552 100.825 99.153 101.501L91.8773 102.855C89.5084 103.363 87.3088 104.716 85.786 106.577L81.5559 112.5C79.0178 116.053 74.2801 117.406 70.3885 115.714L63.6203 112.838C61.2515 111.823 58.8826 111.823 56.5138 112.838L49.5765 115.545C45.5156 117.068 40.7779 115.714 38.2398 112.161L34.0097 105.901C32.6561 103.87 30.4565 102.517 28.0876 102.009L20.9811 100.655C16.5818 99.8093 13.5361 96.0868 13.3669 91.6875L13.0285 84.2426C13.0285 81.7045 12.0133 79.5049 10.1521 77.8129L4.73758 72.7368C1.52272 69.6911 0.845901 64.9534 3.21475 61.0617L7.10642 54.632C8.46005 52.6016 8.79846 50.0635 8.12164 47.6947L6.42961 40.4189C5.41439 36.1888 7.44483 31.7896 11.3365 29.7591L17.9354 26.5443C20.1351 25.529 21.8271 23.4986 22.6731 21.2989L25.042 14.1924C26.5648 10.1315 30.6257 7.42428 35.025 7.93189L42.4699 8.6087C44.8388 8.94711 47.3768 8.27029 49.4072 6.57826L55.1602 2.00977C58.5442 -0.697483 63.4511 -0.697483 66.8352 2.17897L72.5881 6.74746C74.6185 8.27029 76.9874 9.11631 79.3562 8.7779L86.632 8.10109C91.0313 7.59348 95.0921 10.3007 96.4458 14.5308L98.6454 21.4682C99.3222 23.837 101.183 25.8674 103.383 26.8827L109.982 30.2667C113.874 33.1432 116.073 37.5425 114.889 41.7725Z" fill="#A7A4AE"/>
<path opacity="0.5" fill-rule="evenodd" clip-rule="evenodd" d="M17.5701 105.353L0 135.583L20.5114 133.833L31.0214 149L47.2218 121.292C42.9539 122.308 38.2764 120.811 35.6689 117.352L30.9246 110.699C29.4064 108.542 26.9394 107.103 24.2826 106.564L17.5701 105.353ZM71.6693 121.105L87.9786 149L98.4886 133.833L119 135.583L102.022 106.371L95.8262 107.463C93.1694 108.002 90.7024 109.441 88.9945 111.419L84.2502 117.712C81.4037 121.488 76.0901 122.926 71.7253 121.128L71.6693 121.105Z" fill="#A7A4AE"/>
<path d="M60.524 67.98C58.354 67.98 56.556 66.368 56.556 64.322V63.702C56.556 61.346 57.486 59.858 61.144 56.448C64.43 53.534 65.112 52.48 65.112 50.744C65.112 48.636 63.5 47.024 61.454 47.024C59.656 47.024 58.292 47.954 57.176 49.938C56.122 51.426 55.13 52.108 53.704 52.108C51.596 52.108 49.984 50.434 49.984 48.326C49.984 47.458 50.294 46.59 50.852 45.598C52.96 41.568 56.866 39.336 61.702 39.336C68.584 39.336 73.792 43.8 73.792 49.69C73.792 52.728 72.366 55.208 68.77 58.246C65.608 61.036 64.492 62.524 64.43 64.26L64.368 64.818C64.182 66.616 62.57 67.98 60.524 67.98ZM60.71 81.744C57.548 81.744 55.192 79.388 55.192 76.35C55.192 73.374 57.548 70.894 60.71 70.894C63.81 70.894 66.042 73.374 66.042 76.35C66.042 79.388 63.81 81.744 60.71 81.744Z" fill="white"/>
</svg>
