<svg width="137" height="71" viewBox="0 0 137 71" fill="none" xmlns="http://www.w3.org/2000/svg">
<path d="M10.6252 2.84702L9.79796 11.3509L2.84701 16.3192L11.3509 17.1464L16.3192 24.0974L17.1464 15.5935L24.0974 10.6252L15.5935 9.79797L10.6252 2.84702Z" fill="#A87CF0"/>
<path d="M13.4318 28.3305L17.3397 33.0806L16.3304 39.1482L21.0805 35.2403L27.1482 36.2496L23.2403 31.4995L24.2495 25.4318L19.4994 29.3397L13.4318 28.3305Z" fill="#F88082"/>
<path d="M27.0952 17.0155L29.684 20.1623L29.0154 24.1818L32.1622 21.593L36.1818 22.2616L33.5929 19.1149L34.2615 15.0953L31.1148 17.6841L27.0952 17.0155Z" fill="#6FCCF8"/>
<path d="M126.18 2.84702L127.007 11.3509L133.958 16.3192L125.454 17.1464L120.486 24.0974L119.658 15.5935L112.707 10.6252L121.211 9.79797L126.18 2.84702Z" fill="#A87CF0"/>
<path d="M123.373 28.3305L119.465 33.0806L120.474 39.1482L115.724 35.2403L109.657 36.2496L113.565 31.4995L112.555 25.4318L117.305 29.3397L123.373 28.3305Z" fill="#F88082"/>
<path d="M109.71 17.0155L107.121 20.1623L107.789 24.1818L104.643 21.593L100.623 22.2616L103.212 19.1149L102.543 15.0953L105.69 17.6841L109.71 17.0155Z" fill="#6FCCF8"/>
<circle cx="68.5" cy="33.5" r="14.5" fill="#EBA72E"/>
<path d="M68.3807 49.7614C59.3334 49.7614 52 42.428 52 33.3807C52 24.3334 59.3334 17 68.3807 17C77.428 17 84.7614 24.3334 84.7614 33.3807C84.7614 42.428 77.428 49.7614 68.3807 49.7614ZM68.1248 45.1543C71.3152 45.1543 74.375 43.8869 76.631 41.631C78.8869 39.375 80.1543 36.3152 80.1543 33.1248C80.1543 26.4803 74.7692 21.0952 68.1248 21.0952C61.4803 21.0952 56.0952 26.4803 56.0952 33.1248C56.0952 39.7692 61.4803 45.1543 68.1248 45.1543ZM67.4081 28.661V27.9034C67.4081 27.712 67.4841 27.5284 67.6195 27.393C67.7549 27.2577 67.9385 27.1816 68.1299 27.1816C68.3213 27.1816 68.5049 27.2577 68.6403 27.393C68.7756 27.5284 68.8517 27.712 68.8517 27.9034V28.6098C69.4217 28.651 69.9642 28.8711 70.4018 29.2388C70.8393 29.6065 71.1496 30.103 71.2883 30.6574C71.313 30.7673 71.2935 30.8825 71.2342 30.9782C71.1748 31.0739 71.0803 31.1426 70.9709 31.1693H70.4897C70.3349 31.1685 70.1835 31.1238 70.053 31.0405C69.9226 30.9571 69.8184 30.8385 69.7526 30.6984C69.5903 30.4177 69.3502 30.1901 69.0613 30.043C68.7725 29.8958 68.4472 29.8354 68.1248 29.8691C67.101 29.8691 66.4867 30.5038 66.4867 31.0772C66.4867 31.6505 66.9679 31.9884 67.9917 32.2443L69.0155 32.4695C70.7866 32.8483 71.534 33.5957 71.534 34.8959C71.5234 35.5949 71.2403 36.2622 70.745 36.7555C70.2497 37.2489 69.5814 37.5294 68.8824 37.5373V38.4075C68.8824 38.599 68.8063 38.7826 68.671 38.9179C68.5356 39.0533 68.352 39.1293 68.1606 39.1293C67.9692 39.1293 67.7856 39.0533 67.6502 38.9179C67.5149 38.7826 67.4388 38.599 67.4388 38.4075V37.5476C66.8206 37.5381 66.223 37.324 65.7395 36.9387C65.256 36.5534 64.9139 36.0186 64.7667 35.4181C64.7578 35.3717 64.7582 35.324 64.7678 35.2777C64.7774 35.2315 64.7961 35.1876 64.8227 35.1486C64.8494 35.1095 64.8835 35.0762 64.9231 35.0504C64.9626 35.0246 65.0069 35.0069 65.0534 34.9983H65.6574C65.7886 34.9993 65.9167 35.0373 66.0272 35.1079C66.1377 35.1786 66.226 35.279 66.2819 35.3976C66.4707 35.7102 66.7436 35.9634 67.0695 36.1281C67.3954 36.2929 67.7611 36.3626 68.1248 36.3292C69.1486 36.3292 69.9369 35.715 69.9369 35.0904C69.9369 34.4659 69.4864 34.0974 68.3909 33.8414L67.2648 33.5752C65.6574 33.2374 64.8998 32.4286 64.8998 31.1898C64.9271 30.5314 65.1995 29.9069 65.6636 29.439C66.1277 28.9712 66.7499 28.6937 67.4081 28.661ZM59.1051 33.1248C59.1063 31.2333 59.7034 29.3904 60.8116 27.8576C61.9198 26.3248 63.4828 25.1802 65.2786 24.5863C65.3438 24.5633 65.4136 24.5563 65.482 24.5659C65.5505 24.5756 65.6156 24.6016 65.6719 24.6418C65.7282 24.682 65.7739 24.7352 65.8052 24.7968C65.8366 24.8584 65.8526 24.9267 65.8519 24.9958V25.2313C65.8516 25.4204 65.795 25.6052 65.6892 25.762C65.5834 25.9188 65.4334 26.0406 65.2581 26.1118C63.8654 26.6739 62.6724 27.6395 61.8323 28.8845C60.9922 30.1296 60.5434 31.5972 60.5434 33.0992C60.5434 34.6011 60.9922 36.0688 61.8323 37.3138C62.6724 38.5588 63.8654 39.5244 65.2581 40.0866C65.4342 40.1595 65.5846 40.2832 65.6903 40.4417C65.796 40.6003 65.8523 40.7867 65.8519 40.9773V41.1923C65.8519 41.3144 65.8034 41.4316 65.717 41.518C65.6306 41.6044 65.5134 41.653 65.3912 41.653H65.2479C63.4595 41.0544 61.9044 39.9091 60.8022 38.3788C59.6999 36.8485 59.1063 35.0107 59.1051 33.1248ZM77.1444 33.1248C77.1461 35.0112 76.5549 36.8504 75.4545 38.3825C74.3541 39.9147 72.8 41.0623 71.0119 41.6632C70.9399 41.6874 70.8633 41.6943 70.7882 41.6833C70.7131 41.6722 70.6417 41.6435 70.5798 41.5996C70.5179 41.5557 70.4672 41.4977 70.432 41.4305C70.3968 41.3633 70.378 41.2886 70.3771 41.2127V41.0387C70.3823 40.8441 70.4428 40.6551 70.5516 40.4937C70.6604 40.3323 70.813 40.2053 70.9914 40.1275C72.381 39.5637 73.5707 38.5981 74.4084 37.3542C75.246 36.1104 75.6935 34.6449 75.6935 33.1452C75.6935 31.6456 75.246 30.1801 74.4084 28.9363C73.5707 27.6924 72.381 26.7268 70.9914 26.163C70.8095 26.086 70.6538 25.958 70.543 25.7945C70.4322 25.6311 70.371 25.439 70.3669 25.2415V25.088C70.3669 24.8218 70.5819 24.6068 70.8481 24.6068H71.0016C72.7883 25.2048 74.3423 26.3486 75.4444 27.8768C76.5465 29.405 77.1411 31.2406 77.1444 33.1248Z" fill="#FFD33A"/>
<circle cx="43.5" cy="54.5" r="14.5" fill="#EBA72E"/>
<path d="M43.3807 70.7614C34.3334 70.7614 27 63.428 27 54.3807C27 45.3334 34.3334 38 43.3807 38C52.428 38 59.7614 45.3334 59.7614 54.3807C59.7614 63.428 52.428 70.7614 43.3807 70.7614ZM43.1248 66.1543C46.3152 66.1543 49.375 64.8869 51.631 62.631C53.8869 60.375 55.1543 57.3152 55.1543 54.1248C55.1543 47.4803 49.7692 42.0952 43.1248 42.0952C36.4803 42.0952 31.0952 47.4803 31.0952 54.1248C31.0952 60.7692 36.4803 66.1543 43.1248 66.1543ZM42.4081 49.661V48.9034C42.4081 48.712 42.4841 48.5284 42.6195 48.393C42.7549 48.2577 42.9385 48.1816 43.1299 48.1816C43.3213 48.1816 43.5049 48.2577 43.6403 48.393C43.7756 48.5284 43.8517 48.712 43.8517 48.9034V49.6098C44.4217 49.651 44.9642 49.8711 45.4018 50.2388C45.8393 50.6065 46.1496 51.103 46.2883 51.6574C46.313 51.7673 46.2935 51.8825 46.2342 51.9782C46.1748 52.0739 46.0803 52.1426 45.9709 52.1693H45.4897C45.3349 52.1685 45.1835 52.1238 45.053 52.0405C44.9226 51.9571 44.8184 51.8385 44.7526 51.6984C44.5903 51.4177 44.3502 51.1901 44.0613 51.043C43.7725 50.8958 43.4472 50.8354 43.1248 50.8691C42.101 50.8691 41.4867 51.5038 41.4867 52.0772C41.4867 52.6505 41.9679 52.9884 42.9917 53.2443L44.0155 53.4695C45.7866 53.8483 46.534 54.5957 46.534 55.8959C46.5234 56.5949 46.2403 57.2622 45.745 57.7555C45.2497 58.2489 44.5814 58.5294 43.8824 58.5373V59.4075C43.8824 59.599 43.8063 59.7826 43.671 59.9179C43.5356 60.0533 43.352 60.1293 43.1606 60.1293C42.9692 60.1293 42.7856 60.0533 42.6502 59.9179C42.5149 59.7826 42.4388 59.599 42.4388 59.4075V58.5476C41.8206 58.5381 41.223 58.324 40.7395 57.9387C40.256 57.5534 39.9139 57.0186 39.7667 56.4181C39.7578 56.3717 39.7582 56.324 39.7678 56.2777C39.7774 56.2315 39.7961 56.1876 39.8227 56.1486C39.8494 56.1095 39.8835 56.0762 39.9231 56.0504C39.9626 56.0246 40.0069 56.0069 40.0534 55.9983H40.6574C40.7886 55.9993 40.9167 56.0373 41.0272 56.1079C41.1377 56.1786 41.226 56.279 41.2819 56.3976C41.4707 56.7102 41.7436 56.9634 42.0695 57.1281C42.3954 57.2929 42.7611 57.3626 43.1248 57.3292C44.1486 57.3292 44.9369 56.715 44.9369 56.0904C44.9369 55.4659 44.4864 55.0974 43.3909 54.8414L42.2648 54.5752C40.6574 54.2374 39.8998 53.4286 39.8998 52.1898C39.9271 51.5314 40.1995 50.9069 40.6636 50.439C41.1277 49.9712 41.7499 49.6937 42.4081 49.661ZM34.1051 54.1248C34.1063 52.2333 34.7034 50.3904 35.8116 48.8576C36.9198 47.3248 38.4828 46.1802 40.2786 45.5863C40.3438 45.5633 40.4136 45.5563 40.482 45.5659C40.5505 45.5756 40.6156 45.6016 40.6719 45.6418C40.7282 45.682 40.7739 45.7352 40.8052 45.7968C40.8366 45.8584 40.8526 45.9267 40.8519 45.9958V46.2313C40.8516 46.4204 40.795 46.6052 40.6892 46.762C40.5834 46.9188 40.4334 47.0406 40.2581 47.1118C38.8654 47.6739 37.6724 48.6395 36.8323 49.8845C35.9922 51.1296 35.5434 52.5972 35.5434 54.0992C35.5434 55.6011 35.9922 57.0688 36.8323 58.3138C37.6724 59.5588 38.8654 60.5244 40.2581 61.0866C40.4342 61.1595 40.5846 61.2832 40.6903 61.4417C40.796 61.6003 40.8523 61.7867 40.8519 61.9773V62.1923C40.8519 62.3144 40.8034 62.4316 40.717 62.518C40.6306 62.6044 40.5134 62.653 40.3912 62.653H40.2479C38.4595 62.0544 36.9044 60.9091 35.8022 59.3788C34.6999 57.8485 34.1063 56.0107 34.1051 54.1248ZM52.1444 54.1248C52.1461 56.0112 51.5549 57.8504 50.4545 59.3825C49.3541 60.9147 47.8 62.0623 46.0119 62.6632C45.9399 62.6874 45.8633 62.6943 45.7882 62.6833C45.7131 62.6722 45.6417 62.6435 45.5798 62.5996C45.5179 62.5557 45.4672 62.4977 45.432 62.4305C45.3968 62.3633 45.378 62.2886 45.3771 62.2127V62.0387C45.3823 61.8441 45.4428 61.6551 45.5516 61.4937C45.6604 61.3323 45.813 61.2053 45.9914 61.1275C47.381 60.5637 48.5707 59.5981 49.4084 58.3542C50.246 57.1104 50.6935 55.6449 50.6935 54.1452C50.6935 52.6456 50.246 51.1801 49.4084 49.9363C48.5707 48.6924 47.381 47.7268 45.9914 47.163C45.8095 47.086 45.6538 46.958 45.543 46.7945C45.4322 46.6311 45.371 46.439 45.3669 46.2415V46.088C45.3669 45.8218 45.5819 45.6068 45.8481 45.6068H46.0016C47.7883 46.2048 49.3423 47.3486 50.4444 48.8768C51.5465 50.405 52.1411 52.2406 52.1444 54.1248Z" fill="#FFD33A"/>
<circle cx="93.5" cy="54.5" r="14.5" fill="#EBA72E"/>
<path d="M93.3807 70.7614C84.3334 70.7614 77 63.428 77 54.3807C77 45.3334 84.3334 38 93.3807 38C102.428 38 109.761 45.3334 109.761 54.3807C109.761 63.428 102.428 70.7614 93.3807 70.7614ZM93.1248 66.1543C96.3152 66.1543 99.375 64.8869 101.631 62.631C103.887 60.375 105.154 57.3152 105.154 54.1248C105.154 47.4803 99.7692 42.0952 93.1248 42.0952C86.4803 42.0952 81.0952 47.4803 81.0952 54.1248C81.0952 60.7692 86.4803 66.1543 93.1248 66.1543ZM92.4081 49.661V48.9034C92.4081 48.712 92.4841 48.5284 92.6195 48.393C92.7549 48.2577 92.9385 48.1816 93.1299 48.1816C93.3213 48.1816 93.5049 48.2577 93.6403 48.393C93.7756 48.5284 93.8517 48.712 93.8517 48.9034V49.6098C94.4217 49.651 94.9642 49.8711 95.4018 50.2388C95.8393 50.6065 96.1496 51.103 96.2883 51.6574C96.313 51.7673 96.2935 51.8825 96.2342 51.9782C96.1748 52.0739 96.0803 52.1426 95.9709 52.1693H95.4897C95.3349 52.1685 95.1835 52.1238 95.053 52.0405C94.9226 51.9571 94.8184 51.8385 94.7526 51.6984C94.5903 51.4177 94.3502 51.1901 94.0613 51.043C93.7725 50.8958 93.4472 50.8354 93.1248 50.8691C92.101 50.8691 91.4867 51.5038 91.4867 52.0772C91.4867 52.6505 91.9679 52.9884 92.9917 53.2443L94.0155 53.4695C95.7866 53.8483 96.534 54.5957 96.534 55.8959C96.5234 56.5949 96.2403 57.2622 95.745 57.7555C95.2497 58.2489 94.5814 58.5294 93.8824 58.5373V59.4075C93.8824 59.599 93.8063 59.7826 93.671 59.9179C93.5356 60.0533 93.352 60.1293 93.1606 60.1293C92.9692 60.1293 92.7856 60.0533 92.6502 59.9179C92.5149 59.7826 92.4388 59.599 92.4388 59.4075V58.5476C91.8206 58.5381 91.223 58.324 90.7395 57.9387C90.256 57.5534 89.9139 57.0186 89.7667 56.4181C89.7578 56.3717 89.7582 56.324 89.7678 56.2777C89.7774 56.2315 89.7961 56.1876 89.8227 56.1486C89.8494 56.1095 89.8835 56.0762 89.9231 56.0504C89.9626 56.0246 90.0069 56.0069 90.0534 55.9983H90.6574C90.7886 55.9993 90.9167 56.0373 91.0272 56.1079C91.1377 56.1786 91.226 56.279 91.2819 56.3976C91.4707 56.7102 91.7436 56.9634 92.0695 57.1281C92.3954 57.2929 92.7611 57.3626 93.1248 57.3292C94.1486 57.3292 94.9369 56.715 94.9369 56.0904C94.9369 55.4659 94.4864 55.0974 93.3909 54.8414L92.2648 54.5752C90.6574 54.2374 89.8998 53.4286 89.8998 52.1898C89.9271 51.5314 90.1995 50.9069 90.6636 50.439C91.1277 49.9712 91.7499 49.6937 92.4081 49.661ZM84.1051 54.1248C84.1063 52.2333 84.7034 50.3904 85.8116 48.8576C86.9198 47.3248 88.4828 46.1802 90.2786 45.5863C90.3438 45.5633 90.4136 45.5563 90.482 45.5659C90.5505 45.5756 90.6156 45.6016 90.6719 45.6418C90.7282 45.682 90.7739 45.7352 90.8052 45.7968C90.8366 45.8584 90.8526 45.9267 90.8519 45.9958V46.2313C90.8516 46.4204 90.795 46.6052 90.6892 46.762C90.5834 46.9188 90.4334 47.0406 90.2581 47.1118C88.8654 47.6739 87.6724 48.6395 86.8323 49.8845C85.9922 51.1296 85.5434 52.5972 85.5434 54.0992C85.5434 55.6011 85.9922 57.0688 86.8323 58.3138C87.6724 59.5588 88.8654 60.5244 90.2581 61.0866C90.4342 61.1595 90.5846 61.2832 90.6903 61.4417C90.796 61.6003 90.8523 61.7867 90.8519 61.9773V62.1923C90.8519 62.3144 90.8034 62.4316 90.717 62.518C90.6306 62.6044 90.5134 62.653 90.3912 62.653H90.2479C88.4595 62.0544 86.9044 60.9091 85.8022 59.3788C84.6999 57.8485 84.1063 56.0107 84.1051 54.1248ZM102.144 54.1248C102.146 56.0112 101.555 57.8504 100.455 59.3825C99.3541 60.9147 97.8 62.0623 96.0119 62.6632C95.9399 62.6874 95.8633 62.6943 95.7882 62.6833C95.7131 62.6722 95.6417 62.6435 95.5798 62.5996C95.5179 62.5557 95.4672 62.4977 95.432 62.4305C95.3968 62.3633 95.378 62.2886 95.3771 62.2127V62.0387C95.3823 61.8441 95.4428 61.6551 95.5516 61.4937C95.6604 61.3323 95.813 61.2053 95.9914 61.1275C97.381 60.5637 98.5707 59.5981 99.4084 58.3542C100.246 57.1104 100.694 55.6449 100.694 54.1452C100.694 52.6456 100.246 51.1801 99.4084 49.9363C98.5707 48.6924 97.381 47.7268 95.9914 47.163C95.8095 47.086 95.6538 46.958 95.543 46.7945C95.4322 46.6311 95.371 46.439 95.3669 46.2415V46.088C95.3669 45.8218 95.5819 45.6068 95.8481 45.6068H96.0016C97.7883 46.2048 99.3423 47.3486 100.444 48.8768C101.546 50.405 102.141 52.2406 102.144 54.1248Z" fill="#FFD33A"/>
</svg>
