<svg width="285" height="242" viewBox="0 0 285 242" fill="none" xmlns="http://www.w3.org/2000/svg">
<ellipse cx="142.5" cy="225.5" rx="142.5" ry="14.5" fill="black" fill-opacity="0.46"/>
<path d="M120.914 220.366C119.017 220.327 117.071 220.366 115.269 220.979C113.468 221.592 111.819 222.905 111.225 224.717C110.966 225.512 110.966 226.49 111.58 227.055C112.088 227.534 112.854 227.573 113.554 227.582C117.138 227.64 120.723 227.563 124.297 227.362C127.863 227.161 131.524 226.796 134.696 225.148C135.376 224.793 136.076 224.324 136.287 223.595C137.188 220.452 122.927 220.404 120.905 220.366H120.914Z" fill="#3A607A"/>
<path d="M107.411 224.688C105.484 225.493 103.702 226.806 102.734 228.656C105.963 228.483 109.193 228.32 112.423 228.148C113.171 228.109 114.052 227.994 114.416 227.333C115.03 226.221 114.014 223.778 112.816 223.404C111.426 222.963 108.695 224.151 107.411 224.688Z" fill="#E8A74C"/>
<path d="M114.857 224.947C112.931 225.752 111.148 227.065 110.18 228.914C113.41 228.742 116.64 228.579 119.87 228.407C120.617 228.368 121.499 228.253 121.863 227.592C122.476 226.48 121.461 224.036 120.263 223.663C118.873 223.222 116.142 224.41 114.857 224.947Z" fill="#FFB753"/>
<path d="M66.3437 216.082C64.4461 216.043 62.5006 216.082 60.6988 216.695C58.8971 217.318 57.2486 218.621 56.6544 220.433C56.3957 221.228 56.3957 222.206 57.009 222.771C57.517 223.25 58.2837 223.289 58.9833 223.298C62.5677 223.356 66.152 223.279 69.7268 223.078C73.292 222.876 76.9531 222.512 80.1253 220.864C80.8058 220.509 81.5054 220.04 81.7163 219.311C82.6171 216.168 68.3563 216.12 66.3341 216.082H66.3437Z" fill="#2D4A5E"/>
<path d="M52.8401 220.404C50.9137 221.209 49.1311 222.522 48.1631 224.372C51.3929 224.199 54.6227 224.036 57.8524 223.864C58.6 223.825 59.4817 223.71 59.8363 223.049C60.4496 221.937 59.4338 219.494 58.2358 219.12C56.8461 218.679 54.1147 219.867 52.8305 220.404H52.8401Z" fill="#E8A74C"/>
<path d="M92.546 117.857C81.3137 121.777 67.5992 116.295 62.1747 105.714C59.3954 100.299 58.6862 93.9929 59.2229 87.9263C59.5008 84.7541 60.1046 81.6393 60.8809 78.5533C61.7531 75.0744 58.7533 71.8542 55.236 72.525C51.9679 73.148 48.6615 73.4451 45.173 73.7039C41.7898 73.953 38.4067 74.0297 35.014 73.9626C23.3217 73.7326 9.44428 73.6847 1.12548 65.0017C-1.69218 72.8605 1.05839 81.5818 6.29118 88.0893C11.524 94.5967 19.3253 98.6699 27.4332 100.673C21.6158 104.851 14.15 108.311 6.99081 108.56C8.03545 110.813 10.2685 112.25 12.4728 113.4C23.5134 119.16 36.7487 120.579 48.7573 117.282C47.3006 122.15 45.2113 126.655 41.8473 130.469C48.7861 129.894 55.5044 126.99 60.6892 122.352C68.4809 125.476 78.5823 126.386 86.9682 126.032C89.23 125.936 91.6739 125.648 93.3127 124.096C94.9516 122.543 94.597 118.834 92.5556 117.857H92.546Z" fill="#385E78"/>
<path d="M50.147 99.7717C50.147 99.7717 28.8516 121.748 6.99081 108.733C6.99081 108.733 28.3533 116.879 50.147 99.7717Z" fill="#2D4A5E"/>
<path d="M41.8378 130.344C41.8378 130.344 59.8938 126.29 57.5841 112.547C57.5841 112.547 55.1402 125.198 41.8378 130.344Z" fill="#2D4A5E"/>
<path d="M1.12547 65.5574C1.12547 65.5574 7.97794 86.3831 36.4995 87.2648C36.4995 87.2648 7.97794 92.4497 1.12547 65.5574Z" fill="#2D4A5E"/>
<path d="M63.1715 69.9851C63.4302 67.4358 62.7402 64.8865 62.0597 62.4138C61.6093 64.666 60.948 66.8895 59.8459 68.8925C58.7437 70.8955 57.1815 72.6973 55.1977 73.8474C55.581 74.9974 56.4436 75.975 57.5361 76.4925C60.3059 77.8055 62.9798 72.0169 63.181 69.9755L63.1715 69.9851Z" fill="#FFD191"/>
<path d="M90.8976 137.551C91.0318 135.663 89.92 133.814 86.8724 132.175C84.8598 131.092 82.3488 130.996 80.2595 131.906C79.0903 132.414 78.0648 133.21 77.1352 134.082C74.0396 136.976 71.5573 140.934 67.4938 142.161C63.919 143.235 59.7213 141.596 57.8141 138.395C56.6353 136.401 54.3926 134.053 52.1788 133.363C49.9649 132.673 47.3485 133.248 45.8055 134.983C44.2625 136.708 44.0516 139.554 45.4988 141.366C45.6426 141.538 45.8055 141.711 46.0163 141.778C46.9172 142.037 47.0514 140.561 47.4443 139.708C47.9619 138.586 49.8595 138.548 50.4249 139.65C48.7573 140.177 47.7893 141.922 46.8789 143.417C46.4093 144.193 45.9205 145.027 45.9684 145.937C46.0067 146.579 46.323 147.183 46.6872 147.72C47.5497 148.985 48.7765 150.049 50.2332 150.528C50.4153 150.585 50.607 150.633 50.7891 150.585C51.2012 150.48 51.345 149.934 51.2204 149.531C51.0958 149.129 50.7987 148.793 50.607 148.419C50.0895 147.423 50.3387 146.158 51.0191 145.266C51.6996 144.375 52.7442 143.829 53.8176 143.503C56.7215 145.937 60.1717 147.912 63.6027 149.512C65.3853 150.336 67.2542 151.055 69.2093 151.18C70.8481 151.285 72.487 150.978 74.0683 150.557C78.4098 149.407 90.4759 143.33 90.8976 137.58V137.551Z" fill="#3A607A"/>
<path d="M138.779 119.227C150.011 123.147 163.725 117.665 169.15 107.084C171.929 101.669 172.638 95.3633 172.102 89.2967C171.824 86.1244 171.22 83.0097 170.444 79.9237C169.572 76.4447 172.571 73.2245 176.089 73.8954C179.357 74.5184 182.663 74.8155 186.152 75.0742C189.535 75.3234 192.918 75.4001 196.311 75.333C208.003 75.103 221.88 75.0551 230.199 66.3721C233.017 74.2308 230.266 82.9522 225.033 89.4596C219.801 95.9671 211.999 100.04 203.891 102.043C209.709 106.222 217.175 109.682 224.334 109.931C223.289 112.183 221.056 113.621 218.852 114.771C207.811 120.531 194.576 121.949 182.567 118.652C184.024 123.521 186.113 128.025 189.477 131.84C182.539 131.264 175.82 128.361 170.635 123.722C162.844 126.846 152.742 127.757 144.356 127.402C142.095 127.306 139.651 127.019 138.012 125.466C136.363 123.914 136.728 120.205 138.769 119.227H138.779Z" fill="#385E78"/>
<path d="M197.336 190.33C205.463 188.001 213.897 186.736 222.35 186.563C223.874 186.534 225.541 186.582 226.701 187.569C227.861 188.557 227.928 190.818 226.509 191.346C229.183 190.167 232.02 188.959 234.914 189.343C237.809 189.716 240.617 192.342 240.071 195.208C243.205 193.655 247.048 192.917 250.153 194.537C253.248 196.157 254.763 200.786 252.348 203.316C255.184 204.945 258.175 206.747 259.631 209.67C261.088 212.603 260.13 216.954 256.977 217.845C260.005 220.107 261.011 224.678 259.219 228.013C257.427 231.339 253.047 233.016 249.492 231.722C250.354 233.812 249.204 236.323 247.354 237.626C245.505 238.929 243.147 239.255 240.885 239.294C235.595 239.38 230.276 238.057 225.647 235.498C229.605 232.48 232.796 229.403 236.275 225.838C239.754 222.273 242.064 216.906 240.205 212.286C239.036 209.363 236.429 207.264 233.793 205.549C222.283 198.083 210.83 192.86 197.346 190.32L197.336 190.33Z" fill="#FFD191"/>
<path d="M158.004 58.0915C158.723 57.0469 158.646 55.6572 158.397 54.4113C157.41 49.4565 154.007 45.0287 149.474 42.7957C150.26 43.179 153.423 41.2048 153.854 40.4476C154.812 38.7321 153.797 36.7674 152.666 35.4353C150.778 33.1926 145.392 29.2537 142.43 31.4963C145.574 29.1195 142.833 23.5129 138.942 22.8708C135.06 22.2287 131.38 24.6055 128.16 26.8673C130.057 24.5576 131.504 21.8932 132.415 19.0468C132.664 18.2705 132.865 17.3888 132.492 16.6509C131.859 15.405 130.086 15.4241 128.706 15.7021C124.154 16.6125 112.586 21.2607 106.567 27.1548C106.203 26.206 105.571 25.3434 104.612 24.7588C102.398 23.4075 99.1493 23.9154 97.0409 25.3818C94.9324 26.8481 93.7536 29.0524 92.8719 31.2279C91.5781 34.429 90.5718 37.582 90.2651 41.0514C90.1596 42.2973 90.1309 43.5911 90.6197 44.7412C92.2873 48.6802 98.4497 45.1246 100.779 43.7157C105.609 40.8022 111.944 40.601 117.407 41.0514C122.352 41.4539 125.879 47.7122 127.891 51.6128C130.604 56.8552 131.802 62.7301 132.971 68.5188C135.367 80.374 137.772 92.2389 140.168 104.094C141.136 108.867 146.216 113.64 147.452 106.164C148.861 97.6633 148.64 88.8941 146.8 80.4699C147.155 82.0416 151.123 85.3289 152.809 85.1947C156.078 84.936 157.352 78.9652 157.668 76.5213C158.397 70.9914 158.052 63.1614 154.765 58.427C155.483 59.4716 157.266 59.1362 157.985 58.0915H158.004Z" fill="#FFD191"/>
<path d="M76.4835 8.57169C74.9884 4.50813 71.519 1.59463 67.3596 0.521238C62.8648 -0.628827 57.9387 0.195386 53.8464 2.29425C49.8786 4.33562 45.7672 8.12125 46.3805 13.009C46.6201 14.9641 47.6073 16.6413 49.2557 17.7147C49.639 17.9639 49.9936 17.3505 49.6103 17.1013C46.6872 15.2133 46.4284 11.2743 48.0002 8.40876C49.5624 5.54319 52.5813 3.54016 55.514 2.29425C60.8522 0.0420444 67.7046 -0.111298 72.3241 3.79892C76.541 7.36412 77.3556 13.124 75.9755 18.2418C74.4804 23.8005 70.8194 28.4199 65.9508 31.4196C55.514 37.86 42.6907 37.8217 31.583 42.5561C22.0279 46.6292 13.6804 54.603 14.9933 65.8066C15.4534 69.7168 16.8814 73.2437 19.009 76.253C15.9038 79.5882 13.527 83.5655 12.2907 88.0316C9.69346 97.5004 12.3961 108.771 20.3507 114.933C27.5961 120.55 38.7613 120.521 45.9876 114.866C47.6648 113.553 49.0448 111.972 50.147 110.161C50.3866 109.768 49.7732 109.413 49.5336 109.806C44.3583 118.317 32.3785 120.626 23.753 116.266C13.9775 111.311 10.2781 98.8518 12.8561 88.712C14.0062 84.198 16.3447 80.2015 19.4307 76.8472C23.3601 82.0704 29.4267 85.6452 36.097 86.8815C44.1379 88.3766 61.4943 87.7536 59.6734 75.6205C57.8812 63.6214 43.122 63.6885 34.2186 66.6308C28.7462 68.4421 23.5422 71.5856 19.4882 75.7642C14.3512 68.1067 14.102 57.7274 20.7916 50.5586C28.6312 42.1632 40.611 40.4381 51.2012 37.8025C61.1684 35.3203 71.519 31.295 75.7359 21.1361C77.3652 17.2163 77.9786 12.6257 76.4835 8.57169ZM36.1641 66.765C41.8569 65.1836 48.7094 64.6278 53.923 67.9438C58.3987 70.7998 61.1589 77.9206 57.287 82.3867C55.3031 84.6772 52.15 85.5206 49.2749 86.0765C46.2559 86.6611 43.1603 86.8623 40.0839 86.6611C34.0269 86.2585 27.9028 84.198 23.3026 80.1345C22.0087 78.994 20.8587 77.7097 19.8811 76.3392C24.2801 71.7582 30.0975 68.4421 36.1545 66.765H36.1641Z" fill="#0F181F"/>
<path d="M87.6774 186.122C86.9778 185.049 86.2494 183.966 85.4827 182.893C82.9813 179.375 81.007 175.676 78.1223 172.389C76.6272 170.683 60.2771 155.473 58.4562 157.668C54.0668 162.939 53.2426 170.501 54.8527 177.171C56.4627 183.832 60.2196 189.774 64.2449 195.323C69.6597 202.798 75.6784 209.843 82.2242 216.36C77.9498 216.13 72.5732 217.232 68.3084 217.548C65.5195 217.759 62.031 218.736 61.6955 221.516C61.5901 222.378 61.916 223.356 62.6827 223.768C63.0852 223.988 63.5644 224.027 64.0244 224.065C75.065 224.87 86.2111 224.123 97.0409 221.842C97.8747 221.669 98.7947 221.429 99.2643 220.711C99.6956 220.049 99.6189 219.196 99.5039 218.411C97.798 206.249 94.089 196.032 87.6678 186.122H87.6774Z" fill="#3A607A"/>
<path d="M60.8138 164.77C60.0567 164.147 59.175 163.878 58.2262 164.281C57.9483 164.396 57.7182 164.568 57.517 164.77C57.239 164.952 56.9899 165.191 56.8269 165.488C56.5203 166.083 56.4148 166.562 56.3477 167.233C56.2136 168.718 58.0633 170.194 59.4817 169.619C59.9609 169.418 60.4017 169.236 60.7755 168.862C61.1109 168.526 61.408 168.038 61.5326 167.568C61.7818 166.61 61.6189 165.431 60.8138 164.77Z" fill="#447190"/>
<path d="M60.2963 175.417C60.2388 175.091 60.0759 174.804 59.9321 174.507C59.7692 174.152 59.4817 173.893 59.1367 173.721C58.2549 173.108 56.9899 173.04 56.2136 173.893C55.466 174.708 55.2935 176.126 56.1273 176.96C56.5873 177.89 57.6991 178.503 58.7341 178.168C59.98 177.765 60.5071 176.654 60.2963 175.417Z" fill="#447190"/>
<path d="M62.6348 172.408C60.8042 172.408 60.8042 175.245 62.6348 175.245C64.4653 175.245 64.4653 172.408 62.6348 172.408Z" fill="#447190"/>
<path d="M93.744 207.887C88.3195 194.288 77.7198 183.889 67.3692 173.913C67.0433 173.596 66.5354 174.095 66.8708 174.411C77.116 184.292 87.687 194.595 93.0636 208.07C93.2265 208.491 93.9165 208.309 93.744 207.878V207.887Z" fill="#3D2C15"/>
<path d="M79.0903 100.893C80.6237 102.666 81.9079 104.64 82.9142 106.758C83.0963 107.142 83.2784 107.583 83.1347 107.995C82.9813 108.426 82.483 108.666 82.0229 108.656C81.5629 108.656 81.1316 108.445 80.7099 108.253C78.2852 107.094 75.9468 105.762 73.7041 104.276C75.6113 103.394 77.5377 102.311 79.0903 100.903V100.893Z" fill="#E6E6E6"/>
<path d="M81.5054 97.0117C83.3263 98.4781 84.9556 100.194 86.3261 102.091C86.5753 102.436 86.834 102.839 86.7574 103.26C86.6807 103.711 86.2303 104.037 85.7798 104.113C85.3294 104.19 84.8598 104.075 84.4189 103.95C81.8313 103.241 79.2819 102.36 76.8189 101.305C78.5344 100.098 80.2403 98.6793 81.515 97.0117H81.5054Z" fill="#E6E6E6"/>
<path d="M75.7455 104.775C77.2789 106.548 78.5632 108.522 79.5695 110.64C79.7516 111.023 79.9337 111.464 79.7899 111.876C79.6366 112.308 79.1382 112.547 78.6782 112.538C78.2181 112.538 77.7869 112.327 77.3652 112.135C74.9405 110.975 72.602 109.643 70.3594 108.158C72.2666 107.276 74.1929 106.193 75.7455 104.784V104.775Z" fill="#E6E6E6"/>
<path d="M252.443 220.04C248.332 230.745 236.17 235.824 224.947 238.172C207.38 241.843 186.018 244.306 171.642 237.233C187.378 237.837 203.24 235.24 217.961 229.643C223.97 227.362 230.947 221.909 228.397 216.015C226.644 211.951 221.43 210.926 217.012 210.638C203.201 209.756 189.439 210.772 175.667 212.248C157.352 214.213 139.047 217.002 120.656 217.27C111.513 217.404 101.814 216.743 94.2807 211.568C85.9427 205.836 81.8313 195.591 80.1445 185.615C76.6081 164.837 81.5629 143.426 89.5654 123.933C96.5137 107.027 105.705 91.1559 114.091 74.9016C115.375 72.4098 116.63 69.9276 117.867 67.4166C119.879 63.3339 121.844 59.0595 121.93 54.5167C122.026 49.9644 119.735 45.0575 115.471 43.4857C108.57 40.9268 102.072 47.7984 97.9034 53.8459C95.0666 52.6479 89.4121 47.5205 90.0734 46.6196C91.8847 44.1374 101.842 34.4289 107.909 31.0171C113.976 27.6052 121.499 26.2443 127.997 28.7649C140.207 33.5089 143.848 48.9773 143.944 62.0784C143.992 67.6466 143.714 73.2053 143.302 78.7639C143.043 82.3387 142.718 85.9039 142.392 89.4691C142.056 93.0247 141.721 96.5804 141.433 100.146C141.213 102.8 141.021 105.465 140.868 108.129C140.772 109.777 140.695 111.426 140.647 113.074C140.427 119.524 140.552 126.022 141.261 132.405C141.692 136.286 142.344 140.139 143.283 143.906C144.088 147.193 145.114 150.423 146.379 153.576C146.474 153.806 146.57 154.045 146.676 154.285C147.96 157.256 149.877 160.419 152.321 163.61C153.538 165.191 154.88 166.773 156.355 168.335C158.636 170.769 161.224 173.165 164.051 175.427C166.179 177.114 168.441 178.733 170.818 180.228C173.626 182.001 176.597 183.611 179.721 185.001C182.385 186.19 185.145 187.225 188.001 188.058C190.809 188.883 193.694 189.515 196.636 189.927C197.125 189.994 197.624 190.052 198.122 190.109C200.94 190.263 203.633 190.445 206.192 190.694C209.153 190.972 211.942 191.307 214.558 191.71C250.709 197.134 255.261 212.699 252.443 220.021V220.04Z" fill="#447190"/>
<path d="M141.433 100.136C141.213 102.791 141.021 105.455 140.868 108.119C140.772 109.768 140.695 111.416 140.647 113.065C140.628 113.074 140.609 113.084 140.58 113.103C137.312 114.943 133.22 113.563 131.773 110.132C130.211 106.413 132.367 103.126 135.798 101.756C137.274 101.171 139.306 100.51 141.433 100.136Z" fill="#5084A8"/>
<path d="M143.283 143.905C141.165 144.576 138.999 145.142 136.9 145.487C134.293 145.918 131.926 145.008 130.824 142.506C129.818 140.225 130.709 137.312 132.932 136.075C135.491 134.647 138.386 133.421 141.27 132.405C141.702 136.286 142.353 140.139 143.293 143.905H143.283Z" fill="#5084A8"/>
<path d="M152.321 163.61C148.458 166.217 143.983 168.297 139.325 167.741C136.258 167.376 133.584 163.447 136.507 160.936C139.622 158.253 143.379 156.652 146.685 154.285C147.97 157.256 149.886 160.419 152.33 163.61H152.321Z" fill="#5084A8"/>
<path d="M164.051 175.436C160.419 179.701 155.464 183.707 150.049 182.739C147.423 182.27 146.848 179.184 147.778 177.171C148.851 174.852 151.381 173.222 153.231 171.555C154.362 170.539 155.397 169.475 156.346 168.335C158.627 170.769 161.214 173.165 164.042 175.427L164.051 175.436Z" fill="#5084A8"/>
<path d="M179.721 185.001C178.082 188.394 175.609 191.413 171.958 192.592C169.265 193.454 166.84 190.704 167.511 188.135C168.23 185.346 169.754 182.893 170.827 180.229C173.635 182.002 176.606 183.612 179.731 185.001H179.721Z" fill="#5084A8"/>
<path d="M196.646 189.937C195.87 191.854 194.796 193.675 193.33 195.371C190.781 198.351 186.525 195.102 187.225 191.815C187.484 190.569 187.762 189.323 188.011 188.058C190.819 188.883 193.704 189.515 196.646 189.927V189.937Z" fill="#5084A8"/>
<path d="M214.549 191.72C213.514 193.435 212.047 194.901 210.131 195.524C208.06 196.205 206.057 194.403 206.009 192.381C206 191.815 206.067 191.25 206.182 190.704C209.143 190.982 211.932 191.317 214.549 191.72Z" fill="#5084A8"/>
<path d="M143.302 78.7446C143.043 82.3194 142.718 85.8846 142.392 89.4498C142.2 89.4402 142.008 89.4306 141.817 89.4306C139.68 89.3923 137.331 89.354 135.558 87.9835C132.712 85.7888 132.712 82.4344 135.558 80.2397C137.331 78.8788 139.68 78.8405 141.817 78.7926C142.306 78.7926 142.804 78.7638 143.302 78.7446Z" fill="#5084A8"/>
<path d="M175.667 212.238C168.68 212.986 161.694 213.858 154.707 214.663C154.18 214.721 153.662 214.788 153.135 214.836C142.325 216.062 131.514 217.107 120.665 217.26C120.311 217.26 119.956 217.26 119.601 217.26C118.796 217.27 117.982 217.26 117.167 217.26C109.097 217.155 100.874 216.072 94.2903 211.558C91.5972 209.708 89.3546 207.389 87.4762 204.763C87.2845 204.495 87.1024 204.226 86.9203 203.948C83.3359 198.572 81.2466 192.036 80.1541 185.605C79.512 181.829 79.1478 178.034 79.0328 174.238C79.0232 173.874 79.0136 173.5 79.004 173.136C78.8794 166.255 79.5599 159.355 80.8441 152.55C80.9112 152.205 80.9687 151.86 81.0454 151.525C82.3679 144.845 84.2656 138.241 86.5561 131.801C86.6807 131.466 86.7957 131.13 86.9203 130.785C87.7541 128.475 88.6454 126.185 89.575 123.923C91.5972 118.987 93.8111 114.148 96.1496 109.365C96.3125 109.03 96.4754 108.694 96.6288 108.368C98.8714 103.826 101.2 99.3213 103.567 94.8361C103.702 94.5773 103.845 94.3089 103.98 94.0502C106.663 88.9899 109.375 83.9392 112.03 78.8693C112.183 78.5818 112.346 78.2847 112.5 77.9876C113.027 76.9621 113.573 75.9367 114.1 74.9016C114.234 74.8537 114.455 74.892 114.512 74.7483C115.854 71.4706 122.534 68.95 125.083 69.9467C128.85 71.4227 130.067 74.7387 130.163 81.7541C130.163 82.1087 130.163 82.4729 130.163 82.8562C130.163 84.3705 130.115 86.0572 130.038 87.9069C129.885 91.5105 129.607 95.0948 129.233 98.6409C129.195 98.9571 129.166 99.283 129.128 99.6088C128.601 104.43 127.92 109.212 127.211 114.004C127.163 114.368 127.105 114.742 127.048 115.106C125.955 122.495 124.815 129.894 124.096 137.446C124.096 137.494 124.096 137.542 124.087 137.59C124.048 137.925 124.019 138.28 123.991 138.615C123.425 144.969 123.195 151.467 123.617 157.869C123.636 158.253 123.665 158.636 123.694 159.019C124.029 163.495 124.69 167.903 125.773 172.187C125.85 172.523 125.946 172.858 126.032 173.184C127.24 177.689 128.926 182.04 131.217 186.142C131.342 186.372 131.466 186.592 131.591 186.812C131.629 186.88 131.658 186.937 131.696 186.995C134.485 191.786 138.079 196.08 142.267 199.712C142.526 199.942 142.794 200.163 143.053 200.383C147.442 204.063 152.436 207.015 157.783 209.066C158.119 209.2 158.464 209.325 158.799 209.45C161.224 210.322 163.706 211.012 166.236 211.501C169.159 212.066 175.034 211.788 175.667 212.248V212.238Z" fill="#FFB753"/>
<path d="M61.5422 28.717C63.2673 34.9561 63.7657 41.5403 62.999 47.971C62.8648 49.0924 62.7114 50.3095 63.3152 51.2679C64.542 53.2134 72.1036 53.9035 74.0587 53.5968C77.4131 53.0792 79.0807 51.6512 79.1669 48.019C79.349 40.4477 67.2446 32.1481 61.5326 28.717H61.5422Z" fill="#4A7A9C"/>
<path d="M122.17 44.6741C117.934 49.581 114.675 55.3122 112.615 61.4554C112.26 62.5192 111.867 63.6981 110.918 64.3018C108.982 65.5382 101.852 62.9218 100.213 61.8196C97.4051 59.922 96.5042 57.9094 97.9801 54.5934C101.057 47.6738 115.547 45.3449 122.179 44.6837L122.17 44.6741Z" fill="#4A7A9C"/>
<path d="M88.9904 42.9873C85.0994 39.6905 79.9432 38.6075 77.2023 44.607C72.3912 55.1684 70.714 67.8096 66.8708 78.8981C64.772 84.9455 62.376 90.9354 59.0791 96.4366C56.9611 99.973 49.8499 105.58 48.9202 109.049C47.7989 113.266 49.802 118.087 53.9805 119.352C58.0249 120.578 62.5964 120.185 66.2383 118.039C69.8802 115.892 72.4774 111.962 72.7649 107.746C76.5697 105.302 80.0103 100.567 82.9047 97.0979C87.8691 91.1463 92.4981 84.9168 96.7725 78.4572C101.507 71.2981 105.465 63.7843 104.852 55.0055C104.603 51.4403 103.73 47.6259 101.028 45.2779C98.2101 42.834 94.1274 43.3707 91.7122 45.92C90.9359 44.8466 90.0063 43.8403 88.9904 42.9873Z" fill="#4A7A9C"/>
<path d="M88.1949 40.6683C88.1949 40.8983 88.1949 41.1379 88.1949 41.3679C88.1662 42.8246 88.1279 44.2718 88.0895 45.7286C88.0704 46.3898 88.0512 47.0703 87.9553 47.7316C87.9458 47.8562 87.9266 47.9712 87.9074 48.0862C87.8116 48.6133 87.6774 49.1308 87.4666 49.6292C86.1632 52.6194 81.6779 53.9707 79.0711 51.7568C77.6048 50.5109 77.2598 48.805 77.3173 47.032C77.3173 46.7732 77.3268 46.5336 77.3556 46.2748C77.4706 44.9235 77.7485 43.553 77.8827 42.3454C77.9785 41.435 78.084 40.5149 78.199 39.6045C78.2277 39.3649 78.2661 39.1253 78.2948 38.8857C78.6015 36.6143 78.9657 34.3525 79.3874 32.1003C79.4257 31.8703 79.4736 31.6307 79.5215 31.4007C79.9432 29.2347 80.4128 27.0879 80.9495 24.9411C81.007 24.7111 81.0741 24.4811 81.1221 24.2511C81.6012 22.3918 82.1092 20.5517 82.6746 18.7116C82.7321 18.4912 82.7992 18.2612 82.8759 18.0407C83.2209 16.9386 83.5755 15.8269 83.9493 14.7343C84.371 13.4884 85.5977 11.9646 86.6711 12.7313C87.1695 13.0859 87.2653 13.7759 87.3132 14.3989C87.4282 15.8269 87.5337 17.2549 87.6295 18.6829C87.6487 18.9129 87.6678 19.1525 87.6678 19.3825C87.7924 21.1938 87.8883 23.0148 87.9649 24.8261C87.9649 25.0561 87.9841 25.2957 87.9937 25.5353C88.1087 28.2188 88.1758 30.9119 88.2045 33.5954C88.2045 33.8158 88.2045 34.0362 88.2045 34.2471C88.2237 36.3843 88.2141 38.5311 88.1949 40.6587V40.6683Z" fill="#FFB753"/>
<path d="M108.829 17.6188C108.724 18.7209 108.599 19.8326 108.484 20.9444C108.465 21.1744 108.436 21.414 108.407 21.644C108.158 23.8866 107.88 26.1101 107.564 28.3431C107.545 28.5731 107.506 28.7936 107.468 29.0332C107.248 30.6528 107.008 32.2533 106.749 33.873C106.711 34.103 106.682 34.333 106.634 34.5631C106.299 36.7098 105.925 38.847 105.532 40.9843C105.494 41.2238 105.436 41.4634 105.388 41.703C104.967 44.0032 104.507 46.3033 104.018 48.5938C104.008 48.6705 103.98 48.7472 103.97 48.8239C103.913 49.073 103.865 49.3222 103.797 49.5618C103.567 50.5298 103.251 51.4882 102.705 52.3124C100.894 55.0342 96.2358 55.5613 94.0699 52.9258C92.8048 51.3828 92.8048 49.581 93.2169 47.7792C93.2744 47.5492 93.3319 47.3096 93.399 47.0796C93.744 45.8145 94.2424 44.5782 94.5682 43.4473C94.8653 42.4314 95.172 41.4251 95.4883 40.4092C95.5554 40.1792 95.6416 39.9588 95.7087 39.7383C96.5042 37.2849 97.3763 34.8602 98.3251 32.4642C98.4018 32.2438 98.4976 32.0233 98.5839 31.8029C99.226 30.2024 99.9064 28.6115 100.616 27.0397C100.702 26.8193 100.798 26.6084 100.903 26.3976C101.766 24.4712 102.695 22.564 103.663 20.676C103.778 20.4748 103.884 20.2543 103.999 20.0435C104.468 19.1426 104.948 18.2513 105.446 17.36C106.088 16.2099 107.564 14.9257 108.484 15.8745C108.906 16.3249 108.877 17.015 108.819 17.6284L108.829 17.6188Z" fill="#FFB753"/>
<path d="M76.7231 68.2024C75.8701 67.4261 74.5571 67.359 73.7137 68.2024L73.4741 68.442C72.6883 69.2278 72.6307 70.675 73.4741 71.4513C74.3271 72.2276 75.6401 72.2947 76.4835 71.4513C76.5601 71.3746 76.6368 71.298 76.7231 71.2117C77.5089 70.4258 77.5664 68.9787 76.7231 68.2024Z" fill="#3D2C15"/>
<path d="M90.2363 71.8829C90.083 71.8063 89.9201 71.7296 89.7667 71.6433C88.77 71.145 87.4187 71.3462 86.8532 72.41C86.3453 73.378 86.5561 74.7869 87.6199 75.3235C87.7733 75.4002 87.9362 75.4769 88.0895 75.5631C89.0863 76.0615 90.4376 75.8602 91.003 74.7964C91.511 73.8285 91.3001 72.4196 90.2363 71.8829Z" fill="#3D2C15"/>
<path d="M57.4116 104.957C57.2486 104.487 56.9324 104.209 56.5586 104.075C56.1177 103.605 55.351 103.624 54.7952 103.998C54.546 104.113 54.316 104.286 54.1626 104.554C52.9071 106.73 53.3192 109.643 55.2744 111.272C56.0506 111.924 57.3732 111.761 57.6416 110.649C58.1016 108.752 58.0441 106.806 57.402 104.957H57.4116Z" fill="#3D2C15"/>
<path d="M67.4363 106.174C67.5705 105.091 66.1425 104.429 65.2991 104.947C63.3056 106.193 62.0789 108.196 61.8201 110.496C61.4368 111.502 62.261 112.767 63.4782 112.403C65.8741 111.704 66.8133 109.605 67.2446 107.391C67.2446 107.372 67.2638 107.353 67.2734 107.333C67.4171 107.027 67.4459 106.71 67.4075 106.432C67.4171 106.346 67.4363 106.26 67.4459 106.164L67.4363 106.174Z" fill="#3D2C15"/>
<path d="M68.6822 38.8471C68.0209 38.0899 67.2925 37.3328 66.3246 37.0645C66.43 40.1505 66.5354 43.3036 65.5866 46.2362C65.1745 47.5109 64.5611 48.7568 64.5707 50.0985C64.5707 50.3094 64.5899 50.5298 64.7145 50.7023C64.8678 50.9323 65.1649 51.0282 65.4333 51.1048C68.0976 51.8715 74.3463 53.1749 74.7488 48.8526C75.0555 45.4887 70.6852 41.1376 68.6822 38.8471Z" fill="#FFCB85"/>
<path d="M113.583 49.5427C114.541 49.2456 115.566 48.9772 116.525 49.2648C114.809 51.8332 113.075 54.4688 112.337 57.459C112.02 58.7624 111.886 60.1425 111.167 61.2829C111.052 61.4554 110.928 61.6375 110.736 61.7238C110.477 61.8388 110.18 61.7621 109.912 61.6855C107.238 60.9379 101.239 58.772 103.165 54.8809C104.67 51.8524 110.669 50.4532 113.573 49.5523L113.583 49.5427Z" fill="#FFCB85"/>
<path d="M181.178 101.142C181.178 101.142 202.473 123.118 224.334 110.103C224.334 110.103 202.971 118.25 181.178 101.142Z" fill="#2D4A5E"/>
<path d="M189.487 131.715C189.487 131.715 171.431 127.661 173.741 113.917C173.741 113.917 176.184 126.568 189.487 131.715Z" fill="#2D4A5E"/>
<path d="M230.199 66.928C230.199 66.928 223.347 87.7537 194.825 88.6355C194.825 88.6355 223.347 93.8203 230.199 66.928Z" fill="#2D4A5E"/>
<path d="M103.98 48.8334C103.922 49.073 103.874 49.3222 103.807 49.5618C100.204 49.9452 96.5617 49.3318 93.2265 47.7792C93.284 47.5492 93.3415 47.3096 93.4086 47.0796C96.7438 48.6705 100.376 49.2743 103.98 48.8334Z" fill="#FFCA82"/>
<path d="M105.542 40.9844C105.503 41.224 105.446 41.4636 105.398 41.7032C102.053 41.8566 98.718 41.4253 95.5074 40.4094C95.5745 40.1794 95.6608 39.959 95.7279 39.7385C98.9193 40.7352 102.226 41.1569 105.542 40.9844Z" fill="#FFCA82"/>
<path d="M106.749 33.8732C106.711 34.1032 106.682 34.3332 106.634 34.5632C103.788 34.3332 101.028 33.509 98.3347 32.4547C98.4114 32.2343 98.5072 32.0139 98.5935 31.7935C101.229 32.8285 103.96 33.6431 106.749 33.8636V33.8732Z" fill="#FFCA82"/>
<path d="M107.564 28.3432C107.545 28.5732 107.506 28.7937 107.468 29.0333C105.12 28.7266 102.839 27.979 100.625 27.0398C100.711 26.8194 100.807 26.6086 100.913 26.3977C103.06 27.3082 105.283 28.0461 107.564 28.3432Z" fill="#FFCA82"/>
<path d="M108.484 20.9443C108.465 21.1744 108.436 21.414 108.407 21.644C106.807 21.5098 105.225 21.1648 103.682 20.676C103.797 20.4747 103.903 20.2543 104.018 20.0435C105.484 20.4939 106.97 20.8198 108.494 20.9443H108.484Z" fill="#FFCA82"/>
<path d="M87.6583 19.392C85.9715 19.392 84.2943 19.162 82.6651 18.7212C82.7226 18.5007 82.7896 18.2707 82.8663 18.0503C84.4285 18.472 86.0194 18.6828 87.6199 18.6924C87.6391 18.9224 87.6583 19.162 87.6583 19.392Z" fill="#FFCA82"/>
<path d="M87.9841 25.5448C85.6265 25.7844 83.2401 25.5831 80.9304 24.941C80.9879 24.711 81.055 24.481 81.1029 24.251C83.3455 24.8739 85.6552 25.0656 87.9458 24.8356C87.9458 25.0656 87.9649 25.3052 87.9745 25.5448H87.9841Z" fill="#FFCA82"/>
<path d="M88.2045 34.2566C87.572 34.2183 86.949 34.132 86.3548 34.0458C83.9493 33.6912 81.6396 32.9532 79.3778 32.1003C79.4161 31.8702 79.464 31.6306 79.512 31.4006C80.9975 31.9565 82.5021 32.474 84.0451 32.8574C85.2239 33.1449 86.7286 33.5187 88.2045 33.6049C88.2045 33.8254 88.2045 34.0458 88.2045 34.2566Z" fill="#FFCA82"/>
<path d="M88.1949 40.6682C88.1949 40.8982 88.1949 41.1378 88.1949 41.3678C84.7831 41.339 81.4191 40.7352 78.199 39.5948C78.2277 39.3552 78.2661 39.1156 78.2948 38.876C81.4767 40.0356 84.8118 40.6298 88.2045 40.6586L88.1949 40.6682Z" fill="#FFCA82"/>
<path d="M87.8883 48.086C87.8308 48.1627 87.7349 48.2106 87.6103 48.2106C84.2368 48.1339 80.4799 48.3639 77.3077 47.0318C77.3077 46.773 77.3173 46.5334 77.346 46.2747C80.4799 47.6931 84.2464 47.4247 87.6199 47.5014C87.7924 47.5014 87.9074 47.6068 87.9458 47.7314C87.9841 47.856 87.9649 47.9902 87.8979 48.086H87.8883Z" fill="#FFCA82"/>
<path d="M75.0842 96.0723C72.6978 93.6572 69.2572 91.7979 65.7783 91.9512C65.3662 91.9704 65.2224 92.6413 65.6728 92.7179C69.056 93.3026 71.9119 94.2705 74.3846 96.7815C74.835 97.2415 75.5442 96.5323 75.0938 96.0723H75.0842Z" fill="#385E78"/>
<path d="M76.5218 91.0792C74.8159 89.0282 72.0557 87.4373 69.3147 87.7248C68.9314 87.7632 68.7684 88.3861 69.2189 88.4628C71.8449 88.9036 74.0491 89.6991 75.803 91.8076C76.2247 92.3155 76.9531 91.5871 76.5314 91.0792H76.5218Z" fill="#385E78"/>
<path d="M77.2981 85.9519C76.4451 85.0223 74.8255 84.2747 73.5604 84.2651C73.2249 84.2651 73.062 84.7635 73.3783 84.9264C73.9437 85.2044 74.5475 85.396 75.1034 85.6836C75.6784 85.9807 76.1576 86.3928 76.7039 86.7186C77.1927 87.0061 77.6623 86.3544 77.2885 85.9519H77.2981Z" fill="#385E78"/>
<path d="M129.224 98.6311C129.185 98.9474 129.156 99.2733 129.118 99.5991C125.4 99.6662 121.662 99.3691 118.058 98.8228C113.171 98.0753 108.206 96.7719 103.558 94.8359C103.692 94.5772 103.836 94.3088 103.97 94.05C108.379 95.8135 112.902 97.1648 117.675 97.9411C121.556 98.5641 125.39 98.7557 129.224 98.6311Z" fill="#5E431E"/>
<path d="M127.201 114.004C127.153 114.368 127.096 114.742 127.038 115.106C122.074 114.982 117.119 114.435 112.27 113.582C106.845 112.614 101.382 111.253 96.1304 109.365C96.2933 109.03 96.4563 108.695 96.6096 108.369C101.794 110.18 107.066 111.646 112.538 112.605C117.426 113.458 122.304 113.889 127.201 114.004Z" fill="#5E431E"/>
<path d="M124.087 137.446C124.087 137.494 124.087 137.542 124.077 137.59C124.039 137.925 124.01 138.28 123.981 138.615C121.969 138.634 119.956 138.567 118.01 138.491C113.774 138.328 109.538 137.877 105.36 137.139C100.913 136.363 96.5329 135.251 92.2393 133.833C90.3513 133.21 88.425 132.549 86.5369 131.782C86.6615 131.447 86.7765 131.111 86.9011 130.766C88.8467 131.571 90.7922 132.328 92.7952 132.98C96.7821 134.283 100.865 135.309 104.995 136.066C109.394 136.861 113.851 137.35 118.317 137.504C120.243 137.571 122.17 137.504 124.077 137.427L124.087 137.446Z" fill="#5E431E"/>
<path d="M130.153 82.8561C127.93 82.6548 125.735 82.329 123.598 81.9456C119.716 81.246 115.777 80.2684 112.011 78.8788C112.164 78.5913 112.327 78.2942 112.48 77.9971C115.988 79.2046 119.534 80.2397 123.224 80.9202C125.553 81.3418 127.843 81.6102 130.144 81.7635C130.144 82.1181 130.144 82.4823 130.144 82.8657L130.153 82.8561Z" fill="#5E431E"/>
<path d="M123.684 159.01C118.883 159.431 114.043 159.451 109.318 159.134C103.769 158.76 98.258 157.879 92.8719 156.489C88.9233 155.473 84.6968 154.266 80.8345 152.55C80.9016 152.205 80.9591 151.86 81.0358 151.525C82.3296 152.071 83.6139 152.608 84.9364 153.077C87.5337 153.997 90.1692 154.812 92.8431 155.502C98.3443 156.911 103.97 157.802 109.634 158.157C114.359 158.454 119.007 158.329 123.617 157.869C123.636 158.253 123.665 158.636 123.694 159.019L123.684 159.01Z" fill="#5E431E"/>
<path d="M126.032 173.184C120.042 174.823 113.88 175.887 107.689 176.356C98.2197 177.066 88.3579 176.51 79.0232 174.248C79.0136 173.884 79.004 173.51 78.9944 173.146C88.31 175.159 97.7501 176.069 107.391 175.36C113.602 174.909 119.764 173.846 125.773 172.188C125.85 172.523 125.946 172.858 126.032 173.184Z" fill="#5E431E"/>
<path d="M131.696 186.995C129.588 188.317 127.441 189.563 125.265 190.761C120.253 193.521 115.068 195.984 109.759 198.131C102.81 200.939 95.1624 203.872 87.4666 204.763C87.2749 204.495 87.0928 204.226 86.9107 203.948C89.46 203.603 91.9806 203.038 94.4532 202.367C99.7723 200.92 104.995 199.08 110.094 196.981C115.317 194.844 120.406 192.371 125.332 189.621C127.316 188.518 129.291 187.349 131.217 186.142C131.342 186.372 131.466 186.592 131.591 186.812C131.629 186.88 131.658 186.937 131.696 186.995Z" fill="#5E431E"/>
<path d="M143.043 200.383C139.143 204.102 135.06 207.609 130.661 210.734C127.192 213.197 123.483 215.439 119.592 217.28C118.787 217.289 117.972 217.28 117.157 217.28C121.815 215.277 126.233 212.698 130.402 209.699C134.6 206.68 138.52 203.287 142.248 199.722C142.507 199.952 142.775 200.172 143.034 200.393L143.043 200.383Z" fill="#5E431E"/>
<path d="M158.799 209.45C157.736 211.041 156.585 212.564 155.311 214.002C155.11 214.232 154.918 214.452 154.707 214.673C154.18 214.73 153.662 214.797 153.135 214.845C153.404 214.558 153.672 214.27 153.94 213.983C155.349 212.44 156.624 210.791 157.783 209.076C158.119 209.21 158.464 209.335 158.799 209.459V209.45Z" fill="#5E431E"/>
<path opacity="0.2" d="M88.2333 146.158C85.521 162.019 84.2943 178.829 90.2842 193.761C91.7793 197.499 93.744 201.093 96.4275 204.102C101.066 209.287 107.679 212.459 114.522 213.724C121.365 214.989 128.428 214.472 135.261 213.149C137.427 212.727 140.149 211.424 139.727 209.268C139.584 208.53 139.076 207.926 138.587 207.36C129.454 196.674 121.432 184.867 116.391 171.747C111.35 158.626 109.423 144.088 112.48 130.364C113.286 126.731 114.445 123.137 114.503 119.419C114.608 112.183 107.506 105.934 100.874 110.573C96.3508 113.736 94.9516 120.416 93.2457 125.303C90.888 132.07 89.4504 139.114 88.2429 146.167L88.2333 146.158Z" fill="white"/>
<path d="M156.883 12.6737C152.196 5.29413 143.446 0.645952 134.667 1.12515C126.224 1.58517 119.39 7.1534 116.927 15.2039C114.436 23.3693 117.023 31.784 124.259 36.48C128.802 39.4319 134.102 40.8886 138.75 43.62C143.293 46.2843 147.155 50.185 149.781 54.7469C152.311 59.1459 153.72 64.35 152.838 69.4198C151.995 74.298 149.081 78.5245 145.114 81.4092C141.951 83.6998 138.28 85.2236 134.418 86.1724C132.175 79.9237 127.671 74.1734 122.965 70.1769C119.304 67.0718 114.694 64.925 109.816 65.7875C105.695 66.5159 101.785 69.3623 101.143 73.7038C100.405 78.6299 103.912 83.211 108.081 85.3866C112.969 87.9263 118.959 88.2042 124.364 88.07C127.47 87.9934 130.728 87.6483 133.91 86.9487C134.178 87.7154 134.418 88.5013 134.61 89.2872C137.686 101.861 127.681 111.886 116.391 115.202C110.401 116.965 104.066 117.301 97.8459 117.224C91.0509 117.138 84.2656 116.419 77.6048 115.077C74.4229 114.435 71.2698 113.64 68.1551 112.729C67.7142 112.605 67.5321 113.285 67.9634 113.41C80.8825 117.205 94.8749 118.997 108.312 117.483C119.065 116.275 130.623 111.445 134.715 100.587C136.421 96.063 136.133 91.2998 134.629 86.7858C140.523 85.377 146.072 82.6647 149.81 77.8728C156.068 69.8511 154.199 59.1555 148.449 51.4213C145.439 47.3769 141.52 44.1184 137.015 41.8758C131.667 39.2115 125.553 37.4959 121.231 33.1449C114.225 26.0815 115.835 13.7759 122.505 7.05756C130.22 -0.705374 143.101 0.808878 151.123 7.25882C153.145 8.88808 154.87 10.824 156.26 13.0187C156.499 13.4021 157.113 13.0475 156.873 12.6641L156.883 12.6737ZM116.467 87.0158C110.506 86.3066 103.74 83.6998 102.063 77.2498C100.539 71.3941 105.312 66.9472 110.822 66.353C116.678 65.73 121.777 69.5444 125.515 73.6463C128.859 77.3169 131.926 81.6201 133.69 86.3354C128.016 87.61 121.959 87.6579 116.458 87.0062L116.467 87.0158Z" fill="#0F181F"/>
<path d="M143.302 190.483C142.603 189.41 141.874 188.327 141.108 187.253C138.606 183.736 136.632 180.037 133.747 176.749C132.252 175.043 115.902 159.834 114.081 162.029C109.692 167.3 108.867 174.861 110.477 181.532C112.088 188.193 115.844 194.135 119.87 199.684C125.285 207.159 131.303 214.203 137.849 220.72C133.575 220.49 128.198 221.592 123.933 221.909C121.144 222.119 117.656 223.097 117.32 225.876C117.215 226.739 117.541 227.716 118.307 228.128C118.71 228.349 119.189 228.387 119.649 228.426C130.69 229.231 141.836 228.483 152.666 226.202C153.499 226.03 154.42 225.79 154.889 225.071C155.32 224.41 155.244 223.557 155.129 222.771C153.423 210.609 149.714 200.393 143.293 190.483H143.302Z" fill="#447190"/>
<path d="M117.244 171.181C116.41 170.271 114.934 170.261 113.995 170.99C113.286 171.536 113.008 172.312 113.065 173.117C112.806 173.654 112.701 174.306 112.73 174.871C112.778 175.916 113.343 176.826 114.321 177.238C115.269 177.641 116.41 177.44 117.148 176.702C118.672 175.178 118.691 172.763 117.234 171.191L117.244 171.181Z" fill="#5084A8"/>
<path d="M116.707 181.829C116.707 181.829 116.64 181.743 116.602 181.704C115.854 180.813 114.225 180.871 113.458 181.704C112.701 182.529 112.509 184.053 113.458 184.848C113.496 184.886 113.544 184.915 113.583 184.953C114.464 185.691 115.844 185.883 116.707 184.953C117.579 184.005 117.502 182.778 116.707 181.829Z" fill="#5084A8"/>
<path d="M122.112 178.58C121.834 178.197 121.413 177.928 120.876 177.957C120.08 177.995 119.16 178.676 119.256 179.577C119.323 180.132 119.467 180.717 119.937 181.081C120.397 181.445 120.943 181.704 121.547 181.503C121.959 181.369 122.314 181.12 122.534 180.736C122.946 180.037 122.735 179.059 122.103 178.57L122.112 178.58Z" fill="#5084A8"/>
<path d="M151.151 206.287C147.145 196.301 142.008 186.046 134.169 178.494C133.843 178.177 133.335 178.676 133.67 178.992C141.414 186.448 146.503 196.607 150.471 206.469C150.643 206.891 151.324 206.709 151.151 206.277V206.287Z" fill="#3D2C15"/>
<path d="M132.885 118.048C132.166 116.304 130.335 115.144 126.875 115.058C124.595 115.001 122.304 116.036 120.847 117.79C120.033 118.767 119.477 119.936 119.036 121.134C117.57 125.112 117.129 129.76 114.052 132.683C111.34 135.251 106.855 135.673 103.711 133.66C101.766 132.415 98.6989 131.322 96.4179 131.696C94.137 132.079 92.0573 133.766 91.4535 135.999C90.8497 138.232 91.9327 140.877 94.0411 141.836C94.2424 141.931 94.4724 142.008 94.6928 141.97C95.6129 141.797 95.0666 140.417 95.0378 139.478C94.9995 138.242 96.6767 137.36 97.6734 138.088C96.4179 139.305 96.3412 141.299 96.1975 143.043C96.1208 143.944 96.0633 144.912 96.5138 145.698C96.8396 146.254 97.3859 146.647 97.9513 146.963C99.2931 147.71 100.865 148.103 102.379 147.873C102.561 147.845 102.762 147.806 102.906 147.682C103.222 147.404 103.107 146.857 102.82 146.541C102.532 146.225 102.111 146.072 101.775 145.822C100.865 145.171 100.52 143.915 100.721 142.813C100.922 141.711 101.612 140.753 102.427 139.976C106.117 140.848 110.085 141.069 113.87 140.954C115.835 140.896 117.828 140.695 119.63 139.928C121.144 139.286 122.467 138.28 123.694 137.187C127.048 134.207 135.108 123.367 132.894 118.039L132.885 118.048Z" fill="#447190"/>
<path d="M168.153 71.3557C167.894 68.8064 168.584 66.2571 169.265 63.7844C169.715 66.0366 170.377 68.2601 171.479 70.2631C172.581 72.2757 174.143 74.0679 176.127 75.218C175.744 76.368 174.881 77.3456 173.789 77.8631C171.019 79.1761 168.345 73.3875 168.144 71.3461L168.153 71.3557Z" fill="#FFD191"/>
<path d="M60.2867 220.672C58.3604 221.477 56.5778 222.79 55.6098 224.64C58.8396 224.468 62.0693 224.305 65.2991 224.132C66.0466 224.094 66.9283 223.979 67.2925 223.318C67.9059 222.206 66.89 219.762 65.692 219.388C64.3024 218.947 61.571 220.136 60.2867 220.672Z" fill="#FFB753"/>
<path d="M205.458 190.319C210.822 196.029 219.416 198.66 226.774 195.605C228.094 195.055 227.053 193.1 225.745 193.642C219.291 196.321 211.673 193.701 207.076 188.808C206.099 187.766 204.48 189.278 205.458 190.319Z" fill="#3E2E27"/>
<path d="M185.878 210.157L184.249 209.491C184.28 209.839 184.323 210.189 184.376 210.534L185.878 210.157Z" fill="#FE9A63"/>
<path d="M211.812 213.646V223.416L214.373 224.952H207.729C207.729 224.952 209.206 215.649 201.159 215.649C193.113 215.649 193.664 224.952 193.664 224.952H186.465L190.003 223.065L190.673 213.646H211.812Z" fill="#3E2E27"/>
<path d="M190.241 219.787L190.694 217.157C190.694 217.157 206.508 211.448 211.812 219.288V222.858H207.827C207.736 220.115 206.734 215.649 201.158 215.649C195.641 215.649 194.167 220.022 193.784 222.767L190.042 222.589L190.241 219.787Z" fill="#3E2E27"/>
<path d="M211.854 213.646L212.779 219.299C212.779 219.299 200.758 221.695 197.44 213.646H211.854Z" fill="#5C7A96"/>
<path d="M199.986 213.646C203.118 217.96 210.174 218.146 213.265 217.868L213.093 219.722C213.093 219.722 200.751 221.695 197.44 213.646H199.986Z" fill="#FFEBE3"/>
<path d="M198.924 185.129C198.924 185.129 210.634 193.966 211.672 213.646H190.673C190.673 213.646 189.677 190.166 198.924 185.129Z" fill="#5C7A96"/>
<path d="M211.672 206.33C212.547 206.33 197.436 185.522 197.436 185.522L196.266 188.453L210.828 209.78L211.672 206.33Z" fill="#41576B"/>
<path d="M203.996 187.267V196.479L202.007 191.873L202.095 186.615L203.996 187.267Z" fill="#41576B"/>
<path d="M207.049 210.735C207.978 209.719 209.595 207.176 207.107 207.04C205.585 206.956 205.636 209.339 205.771 210.351C205.821 210.721 205.179 210.807 205.119 210.439C204.931 209.278 204.561 207.917 203.735 207.051C203.132 206.425 201.821 206.595 201.803 207.603C201.793 208.113 202.082 208.665 202.372 209.075C202.617 209.428 202.042 209.76 201.799 209.41C201.398 208.835 201.083 208.088 201.151 207.378C201.253 206.324 202.495 205.798 203.426 206.083C204.954 206.55 205.536 208.888 205.76 210.261L205.107 210.351C204.893 208.757 205.234 206.024 207.457 206.409C208.762 206.637 209.411 207.564 209.005 208.841C208.726 209.714 208.133 210.534 207.52 211.205C207.231 211.522 206.762 211.051 207.049 210.735Z" fill="#41576B"/>
<path d="M201.076 210.333C200.786 209.617 200.394 208.947 199.913 208.342C199.681 208.07 199.332 207.723 199.004 208.037C198.706 208.324 198.294 208.982 198.79 209.286C199.154 209.508 198.82 210.083 198.455 209.86C197.225 209.107 198.34 206.789 199.649 207.311C200.696 207.73 201.31 209.185 201.709 210.162C201.871 210.559 201.228 210.73 201.069 210.34L201.076 210.333Z" fill="#41576B"/>
<path d="M201.139 182.657L201.527 187.965L201.471 189.733L196.696 185.391L197.318 182.097L201.139 182.657Z" fill="#FEC6A7"/>
<path d="M197.799 186.011C197.938 186.011 202.079 192.082 202.079 192.082C202.079 192.082 201.986 186.72 202.079 186.755C202.173 186.79 201.521 186.516 201.521 186.516L201.102 189.055L198.496 186.011H197.799Z" fill="#FFF8F5"/>
<path d="M198.907 182.34L199.155 182.376L201.261 184.346L201.355 185.623C199.592 185.236 199.041 183.059 198.907 182.34Z" fill="#FE9A63"/>
<path d="M190.689 213.646L189.763 219.299C189.763 219.299 201.786 221.695 205.102 213.646H190.689Z" fill="#5C7A96"/>
<path d="M202.544 213.181C199.412 217.495 192.858 218.111 189.763 217.833L189.296 219.722C189.296 219.722 201.931 222.02 205.102 213.646L202.544 213.181Z" fill="#FFEBE3"/>
<path d="M189.497 220.174C189.497 220.174 190.647 220.84 191.311 219.69C191.976 218.54 197.644 208.768 197.644 208.768L196.494 208.101L189.497 220.174Z" fill="#3E2E27"/>
<path d="M197.159 209.607C196.952 209.549 196.753 209.466 196.566 209.359C196.364 209.241 196.179 209.096 196.016 208.927L196.495 208.101L197.645 208.768L197.159 209.607Z" fill="#211915"/>
<path d="M195.865 207.156C195.558 207.686 195.963 208.495 196.77 208.962C197.577 209.43 198.48 209.381 198.787 208.85C199.094 208.32 198.688 207.513 197.881 207.046C197.074 206.578 196.166 206.627 195.865 207.156Z" fill="#FFE297"/>
<path d="M196.11 207.226C195.864 207.645 196.223 208.316 196.911 208.715C197.599 209.114 198.355 209.093 198.6 208.671C198.844 208.248 198.487 207.58 197.8 207.181C197.113 206.782 196.354 206.799 196.11 207.226Z" fill="#FFCF52"/>
<path d="M197.05 207.143C196.929 207.354 196.785 207.502 196.996 207.623L197.762 208.069C197.973 208.19 198.078 208.02 198.201 207.81L200.866 203.205C200.921 203.097 200.932 202.973 200.898 202.858C200.864 202.743 200.786 202.645 200.682 202.585L200.298 202.363C200.249 202.335 200.195 202.317 200.138 202.311C200.082 202.304 200.025 202.309 199.971 202.326C199.916 202.342 199.866 202.369 199.822 202.406C199.779 202.442 199.743 202.487 199.718 202.537L197.05 207.143Z" fill="#405569"/>
<path d="M199.828 202.353C199.839 202.328 199.855 202.305 199.876 202.286C199.896 202.268 199.92 202.253 199.947 202.244C199.973 202.235 200.001 202.232 200.028 202.234C200.056 202.237 200.083 202.245 200.107 202.258L200.873 202.704C200.927 202.734 200.967 202.783 200.987 202.841C201.006 202.899 201.003 202.963 200.978 203.019L200.644 203.594C200.612 203.645 200.561 203.68 200.502 203.694C200.444 203.708 200.382 203.699 200.33 203.668C200.279 203.638 200.241 203.59 200.225 203.533C200.209 203.476 200.216 203.415 200.244 203.362C200.272 203.311 200.28 203.25 200.264 203.193C200.248 203.136 200.211 203.087 200.16 203.057C200.109 203.028 200.048 203.02 199.991 203.035C199.935 203.05 199.886 203.087 199.856 203.138C199.843 203.163 199.825 203.185 199.803 203.203C199.781 203.221 199.755 203.235 199.728 203.243C199.701 203.251 199.673 203.253 199.644 203.25C199.616 203.247 199.589 203.238 199.564 203.224C199.54 203.21 199.519 203.19 199.502 203.167C199.486 203.144 199.474 203.118 199.467 203.091C199.461 203.063 199.46 203.035 199.465 203.007C199.469 202.979 199.479 202.952 199.494 202.928L199.828 202.353Z" fill="#FFE297"/>
<path d="M196.982 207.261C196.894 207.414 196.827 207.526 196.996 207.624L197.762 208.069C197.933 208.167 198.041 208.081 198.132 207.929L198.089 208.003C197.967 208.214 197.863 208.383 197.652 208.261L196.886 207.816C196.675 207.695 196.817 207.547 196.94 207.336L196.982 207.261Z" fill="#FFE297"/>
<path d="M199.434 204.302L200.046 204.271L199.768 203.727L199.157 203.756L199.434 204.302Z" fill="white"/>
<path d="M198.843 205.323L199.454 205.293L199.176 204.748L198.565 204.778L198.843 205.323Z" fill="white"/>
<path d="M198.249 206.345L198.861 206.316L198.583 205.77L197.972 205.799L198.249 206.345Z" fill="white"/>
<path d="M197.658 207.367L198.269 207.337L197.991 206.792L197.38 206.822L197.658 207.367Z" fill="white"/>
<path d="M190.673 213.646L211.989 213.925L211.431 209.784L190.22 210.627L190.673 213.646Z" fill="#8F9CA8"/>
<path d="M211.431 209.784L194.588 211.855C194.588 211.855 205.848 211.04 205.8 212.111C205.753 213.181 194.588 212.715 194.588 212.715L211.989 213.925L190.673 213.646L190.22 210.627L211.431 209.784Z" fill="#7C8791"/>
<path d="M199.193 204.931C197.533 204.931 196.186 203.82 196.186 202.449C196.186 201.079 197.533 199.968 199.193 199.968C200.853 199.968 202.199 201.079 202.199 202.449C202.199 203.82 200.853 204.931 199.193 204.931Z" fill="#FEC6A7"/>
<path d="M202.139 202.899C202.139 202.899 201.627 205.847 200.131 205.91C198.635 205.972 196.887 205.337 196.061 205.072L196.946 203.918L202.139 202.899Z" fill="#FEC6A7"/>
<path d="M199.927 203.383L200.193 203.48L199.357 205.777L199.09 205.68L199.927 203.383Z" fill="#FF9270"/>
<path d="M198.371 202.952L198.625 203.078L197.419 205.495L197.165 205.368L198.371 202.952Z" fill="#FF9270"/>
<path d="M201.867 201.665C202.036 201.654 203.453 203.986 202.693 204.701C201.934 205.416 200.684 203.184 200.684 203.184L201.867 201.665Z" fill="#FEC6A7"/>
<path d="M198.986 186.104C198.986 186.104 195.695 207.993 196.311 215.469C196.311 215.469 188.93 215.556 188.298 209.223C188.298 209.223 182.339 212.739 179.527 209.223L184.017 193.668C184.017 193.668 184.793 186.848 198.986 186.104Z" fill="#4F6982"/>
<path d="M207.44 224.42L207.493 224.449C207.479 224.434 207.47 224.416 207.466 224.396C207.463 224.376 207.465 224.356 207.473 224.337C207.481 224.318 207.495 224.303 207.512 224.291C207.529 224.28 207.548 224.275 207.569 224.275H207.88L207.541 224.177C207.514 224.17 207.491 224.152 207.477 224.128C207.464 224.103 207.46 224.075 207.467 224.048C207.475 224.021 207.493 223.998 207.517 223.984C207.541 223.971 207.57 223.967 207.597 223.975L208.698 224.293L210.479 224.332L212.029 223.249C212.14 223.172 212.244 223.353 212.134 223.43L210.832 224.34L211.242 224.349L212.243 223.475C212.345 223.387 212.493 223.533 212.391 223.623L211.553 224.356L213.344 224.396V224.114C213.344 223.975 213.484 223.975 213.484 224.114V225.37C213.484 225.51 213.344 225.51 213.344 225.37V224.612L211.319 224.568L210.9 224.935L211.414 225.083C211.441 225.09 211.464 225.108 211.477 225.132C211.491 225.156 211.495 225.185 211.487 225.212C211.48 225.239 211.462 225.261 211.438 225.275C211.414 225.289 211.385 225.293 211.358 225.285L210.71 225.098L210.528 225.259C210.426 225.347 210.278 225.199 210.38 225.111L210.472 225.03L210.035 224.904L209.179 225.501C209.169 225.511 209.156 225.517 209.143 225.521C209.129 225.524 209.115 225.525 209.101 225.521C209.088 225.518 209.075 225.512 209.064 225.503C209.053 225.494 209.045 225.482 209.04 225.469C209.033 225.481 209.024 225.491 209.013 225.499C209.002 225.507 208.99 225.513 208.977 225.516C208.964 225.519 208.95 225.519 208.937 225.517C208.924 225.514 208.911 225.509 208.9 225.501L207.323 224.6C207.299 224.584 207.282 224.56 207.277 224.532C207.271 224.504 207.276 224.475 207.292 224.451C207.307 224.427 207.332 224.411 207.359 224.405C207.387 224.399 207.416 224.404 207.44 224.42ZM209.484 224.526L209.999 224.675L210.188 224.543L209.484 224.526ZM210.659 224.865L211.009 224.561L210.542 224.55L210.262 224.749L210.659 224.865ZM209.017 225.321C209.029 225.328 209.04 225.337 209.048 225.348C209.055 225.337 209.064 225.328 209.075 225.321L209.773 224.829L208.656 224.508L207.559 224.484L207.532 224.477L209.017 225.321Z" fill="#FFEBE3"/>
<path d="M207.345 224.951H214.882V225.649H207.345V224.951Z" fill="#FFE297"/>
<path d="M187.666 224.421V224.114C187.666 223.975 187.805 223.975 187.805 224.114V224.403L189.586 224.363L188.749 223.63C188.647 223.541 188.795 223.394 188.888 223.482L189.889 224.356L190.299 224.347L188.997 223.437C188.887 223.361 188.997 223.179 189.102 223.256C189.618 223.618 190.135 223.979 190.652 224.339L192.433 224.3L193.535 223.982C193.561 223.974 193.59 223.978 193.614 223.992C193.639 224.005 193.656 224.028 193.664 224.055C193.671 224.082 193.668 224.11 193.654 224.135C193.64 224.159 193.617 224.177 193.59 224.184L193.251 224.282H193.563C193.583 224.282 193.602 224.288 193.619 224.299C193.636 224.31 193.649 224.326 193.657 224.345C193.665 224.363 193.667 224.384 193.663 224.403C193.66 224.423 193.65 224.442 193.636 224.456L193.691 224.427C193.715 224.416 193.741 224.415 193.766 224.423C193.791 224.43 193.812 224.447 193.825 224.47C193.838 224.492 193.842 224.518 193.836 224.544C193.831 224.569 193.817 224.592 193.796 224.607L192.22 225.509C192.209 225.516 192.196 225.521 192.183 225.524C192.17 225.526 192.156 225.526 192.143 225.523C192.13 225.52 192.118 225.514 192.107 225.506C192.096 225.498 192.087 225.488 192.08 225.476C192.075 225.489 192.066 225.5 192.055 225.509C192.045 225.518 192.032 225.524 192.019 225.528C192.005 225.531 191.991 225.531 191.977 225.527C191.964 225.524 191.951 225.518 191.941 225.509C191.656 225.309 191.371 225.11 191.085 224.911L190.65 225.037L190.742 225.118C190.844 225.206 190.696 225.354 190.594 225.266L190.411 225.105L189.763 225.292C189.737 225.3 189.708 225.296 189.684 225.282C189.659 225.269 189.642 225.246 189.634 225.219C189.627 225.192 189.63 225.163 189.644 225.139C189.658 225.115 189.681 225.097 189.708 225.09L190.224 224.942C190.084 224.819 189.945 224.696 189.805 224.575L187.79 224.619V225.37C187.79 225.51 187.65 225.51 187.65 225.37V224.6C187.526 224.564 187.526 224.462 187.666 224.421ZM190.946 224.543L191.135 224.675L191.649 224.526L190.946 224.543ZM192.062 225.322C192.073 225.329 192.082 225.338 192.089 225.348C192.097 225.337 192.107 225.328 192.119 225.322L193.595 224.477L193.568 224.484L192.471 224.508L191.354 224.829L192.062 225.322ZM190.477 224.865L190.88 224.749L190.601 224.55L190.133 224.561L190.477 224.865Z" fill="#FFEBE3"/>
<path d="M186.27 224.951H193.807V225.649H186.27V224.951Z" fill="#FFE297"/>
<path d="M195.332 184.101L198.869 184.66L199.126 186.242L198.669 189.429L191.745 187.342C191.745 187.342 192.262 185.963 193.978 185.916C195.695 185.868 195.332 184.101 195.332 184.101Z" fill="#4F6982"/>
<path d="M201.471 187.177C201.471 187.177 208.17 197.969 207.821 200.918C207.472 203.867 208.815 213.7 208.815 213.7C208.815 213.7 215.152 212.806 215.71 208.898C215.71 208.898 221.081 205.809 220.489 202.26C220.489 202.26 224.239 195.362 221.335 192.989C221.335 192.989 205.842 189.221 205.352 187.406L206.282 185.592H201.355L201.471 187.177Z" fill="#4F6982"/>
<path d="M194.969 183.778L198.785 184.459C198.819 184.468 198.849 184.486 198.874 184.51C198.898 184.535 198.916 184.565 198.925 184.598C199.009 185.115 199.245 185.767 199.185 186.287C199.099 187.024 199.011 187.762 198.919 188.499C198.48 192.105 197.983 195.703 197.505 199.304C196.792 204.682 196.312 210.171 196.654 215.602C196.671 215.871 196.252 215.87 196.235 215.602C195.86 209.634 196.505 203.645 197.296 197.736C197.761 194.264 198.228 190.79 198.644 187.31C198.72 186.684 198.784 186.296 198.692 185.76L198.57 185.007C198.556 184.926 198.544 184.844 198.53 184.763C198.508 184.624 198.732 184.866 198.643 184.851L197.556 184.657L194.852 184.176C194.587 184.128 194.7 183.725 194.964 183.771L194.969 183.778Z" fill="#FFEBE3"/>
<path d="M201.344 185.452H206.219C206.256 185.453 206.291 185.463 206.323 185.482C206.355 185.5 206.381 185.527 206.399 185.559C206.417 185.59 206.427 185.626 206.427 185.663C206.428 185.7 206.418 185.736 206.4 185.768C206.225 186.119 206.05 186.466 205.874 186.826L205.581 187.415C205.517 187.254 205.483 187.611 205.581 187.415C205.846 188.09 206.085 188.777 206.313 189.466C207.214 192.181 207.948 195.016 208.107 197.883C208.156 198.761 208.012 199.616 208.014 200.486C208.014 201.129 208.019 201.772 208.028 202.415C208.054 204.648 208.11 206.873 208.247 209.097C208.308 210.074 208.387 211.051 208.526 212.028C208.583 212.423 208.613 213.275 208.966 213.548C209.178 213.714 208.879 214.009 208.668 213.844C208.318 213.565 208.25 212.908 208.181 212.508C208.032 211.6 207.93 210.684 207.877 209.764C207.71 207.508 207.655 205.241 207.62 202.977C207.608 202.233 207.601 201.484 207.598 200.731C207.598 200.071 207.7 199.425 207.71 198.765C207.757 195.793 206.941 192.787 206.043 189.972C205.779 189.147 205.495 188.326 205.181 187.519C205.101 187.317 205.257 187.124 205.347 186.944L206.045 185.549L206.225 185.864H201.349C201.294 185.864 201.241 185.842 201.201 185.803C201.162 185.763 201.14 185.71 201.14 185.655C201.14 185.599 201.162 185.546 201.201 185.507C201.241 185.467 201.294 185.445 201.349 185.445L201.344 185.452Z" fill="#FFEBE3"/>
<g style="mix-blend-mode:multiply" opacity="0.7">
<path d="M196.078 193.288C196.184 193.229 191.983 187.919 191.983 187.919C191.983 187.919 188.196 201.178 189.763 201.27C191.331 201.362 192.216 189.733 192.216 189.733C192.216 189.733 194.868 193.966 196.078 193.288Z" fill="#41576B"/>
</g>
<g style="mix-blend-mode:multiply" opacity="0.7">
<path d="M216.286 196.029L207.848 190.4C207.848 190.4 209.759 203.767 210.733 203.488C211.707 203.209 209.725 194.147 209.725 194.147C209.725 194.147 212.486 202.461 213.428 202.102C214.37 201.743 210.87 194.147 210.87 194.147C210.87 194.147 217.034 198.173 216.286 196.029Z" fill="#41576B"/>
</g>
<path d="M186.207 192.964L187.516 198.242L186.538 200.17L186.017 194.311L186.207 192.964Z" fill="#FFD25C"/>
<path d="M197.436 198.293L197.151 200.028L186.538 200.17L186.91 198.293H197.436Z" fill="#FFD566"/>
<path d="M197.845 198.852L197.803 197.376L187.058 197.2L186.838 198.852H197.845Z" fill="#FFDB7D"/>
<path d="M186.207 191.245L187.237 192.536L187.058 197.174L186.838 198.851L186.017 193.28L186.207 191.245Z" fill="#FFE297"/>
<path d="M186.207 191.245L186.997 197.654L197.803 197.376L196.362 191.45L186.207 191.245Z" fill="#FFE296"/>
<path d="M192.715 191.66L195.752 192.01L195.736 192.148L192.699 191.799L192.715 191.66Z" fill="#FFD452"/>
<path d="M189.747 192.007L194.222 192.297L194.213 192.436L189.738 192.147L189.747 192.007Z" fill="#FFD452"/>
<path d="M187.945 192.85H193.807V192.989H187.945V192.85Z" fill="#FFD452"/>
<path d="M187.259 193.621L190.888 193.902L190.877 194.041L187.248 193.76L187.259 193.621Z" fill="#FFD452"/>
<path d="M187.526 192.292H188.782V192.431H187.526V192.292Z" fill="#FFD452"/>
<path d="M193.109 194.385H194.225V194.525H193.109V194.385Z" fill="#FFD452"/>
<path d="M193.946 193.687H195.761V193.827H193.946V193.687Z" fill="#FFD452"/>
<path d="M190.843 195.941L196.472 195.985L196.471 196.124L190.842 196.08L190.843 195.941Z" fill="#FFD452"/>
<path d="M188.363 194.943H190.876V195.083H188.363V194.943Z" fill="#FFD452"/>
<path d="M188.363 196.06H190.038V196.2H188.363V196.06Z" fill="#FFD452"/>
<path d="M188.363 197.177H189.62V197.316H188.363V197.177Z" fill="#FFD452"/>
<path d="M193.528 196.758H197.436V196.897H193.528V196.758Z" fill="#FFD452"/>
<path d="M195.993 194.958L196.033 195.092L195.452 195.266L195.412 195.133L195.993 194.958Z" fill="#FFD452"/>
<path d="M194.225 192.85H196.04V192.989H194.225V192.85Z" fill="#FFD452"/>
<path d="M193.082 191.245L193.934 197.28L193.681 200.02L191.987 200.099L192.341 197.273L191.505 191.352L193.082 191.245Z" fill="#3E2E27"/>
<path d="M192.341 197.316L192.338 197.271L193.934 197.332L193.797 198.851H192.154L192.341 197.316Z" fill="#594238"/>
<path d="M191.747 186.918L190.377 187.162L191.505 191.352L193.082 191.244L191.747 186.918Z" fill="#3E2E27"/>
<path d="M168.046 163.539C168.046 163.539 160.788 174.363 168.046 177.431C175.304 180.499 180.189 173.837 180.189 173.837L173.323 161.746C173.323 161.746 170.279 160.583 169.93 160.908C169.581 161.233 168.046 163.539 168.046 163.539Z" fill="#3E2E27"/>
<path d="M228.526 156.602C228.526 156.602 227.86 161.644 226.013 162.776C224.167 163.908 235.916 173.662 235.916 173.662L229.363 180.765C229.363 180.765 220.303 171.237 220.493 164.104C220.683 156.972 220.493 147.8 220.493 147.8L228.526 156.602Z" fill="#3E2E27"/>
<path d="M171.545 161.724C171.545 178.784 184.881 183.872 201.334 183.872C217.787 183.872 231.123 178.789 231.123 161.724C231.123 144.66 224.855 131.686 208.532 129.623C170.659 124.847 171.545 144.669 171.545 161.724Z" fill="#FEC6A7"/>
<path d="M221.698 154.369C221.698 154.369 230.245 163.679 226.897 167.308C223.548 170.936 214.997 169.122 214.997 169.122L225.148 166.051L221.698 154.369Z" fill="#FFA287"/>
<path d="M171.288 150.817C171.288 150.817 153.909 138.757 151.25 151.934C148.222 166.945 173.398 163.839 173.398 163.839L171.288 150.817Z" fill="#FEC6A7"/>
<path d="M179.396 156.742C179.396 156.742 178.73 161.783 176.884 162.915C175.037 164.047 186.793 173.802 186.793 173.802L178.584 182.242C178.584 182.242 171.164 171.724 171.362 164.249C171.553 157.119 171.362 147.945 171.362 147.945L179.396 156.742Z" fill="#3E2E27"/>
<path d="M167.64 160.074C167.64 160.074 164.988 147.597 158.781 151.289C152.574 154.981 158.117 163.617 167.64 160.074Z" fill="#FFA287"/>
<path d="M176.63 145.534C176.745 145.534 175.214 163.726 171.7 166.058C171.7 166.058 170.68 168.117 172.19 169.03C173.7 169.943 177.956 156.7 178.304 145.115L176.63 145.534Z" fill="#FFEBE3"/>
<path d="M230.523 146.104C230.523 146.104 233.575 160.212 230.828 168.777L228.411 173.138C228.411 173.138 230.975 151.138 228.158 145.894L229.768 145.115L230.523 146.104Z" fill="#FFEBE3"/>
<g style="mix-blend-mode:multiply" opacity="0.2">
<path d="M195.942 162.981C173.418 162.981 158.955 159.172 151.213 156.281C150.934 155.034 150.915 153.596 151.25 151.932C153.902 138.755 171.288 150.816 171.288 150.816L171.655 153.08C172.329 138.734 176.981 125.644 208.532 129.631C219.156 130.973 225.521 136.941 228.669 145.649L229.768 145.118L230.523 146.106C230.523 146.106 232.181 153.769 231.953 161.228C225.114 162.27 216.88 162.984 207.146 162.984L195.942 162.981Z" fill="#3E2E27"/>
</g>
<path d="M230.828 168.777L228.411 173.138C228.411 173.138 228.58 173.068 228.749 171.295C230.145 169.175 231.085 166.131 231.688 164.735C231.525 166.106 231.237 167.459 230.828 168.777Z" fill="#EDDBD3"/>
<path d="M186.292 173.364C186.292 173.364 203.916 184.309 213.033 182.242C213.34 182.172 225.755 182.901 227.05 175.907C227.05 175.907 228.213 174.396 228.383 174.232C228.553 174.067 228.414 186.862 213.03 184.046C213.03 184.046 195.292 189.843 184.157 173.523L186.292 173.364Z" fill="#FFEBE3"/>
<path d="M194.626 177.834C192.393 177.813 189.246 177.57 186.518 176.565C185.668 175.603 184.879 174.589 184.157 173.527L186.292 173.364C188.992 174.995 191.774 176.487 194.626 177.834Z" fill="#EDDBD3"/>
<path d="M227.047 175.907C227.047 175.907 228.21 174.397 228.38 174.232C228.419 174.196 228.442 174.842 228.269 175.823C227.863 176.145 227.396 176.383 226.897 176.521C226.958 176.319 227.008 176.114 227.047 175.907Z" fill="#EDDBD3"/>
<path d="M174.161 165.969C174.218 165.83 217.404 188.601 230.827 168.777C230.827 168.777 232.711 169.812 230.521 172.611C230.521 172.611 217.453 192.629 173.322 168.088L174.161 165.969Z" fill="#FFEBE3"/>
<path d="M209.361 182.46C209.852 182.495 210.332 182.508 210.8 182.497H210.83C210.97 182.497 211.101 182.489 211.234 182.482H211.334C211.445 182.475 211.553 182.468 211.661 182.458L211.789 182.446C211.888 182.436 211.986 182.425 212.084 182.412L212.223 182.395C212.321 182.382 212.419 182.366 212.515 182.349L212.637 182.33C212.776 182.305 212.903 182.278 213.034 182.249H213.051H213.133H213.16H213.185H213.192C214.785 182.272 216.378 182.178 217.957 181.97C219.772 181.731 221.642 181.287 223.272 180.465C223.324 180.45 223.388 180.434 223.441 180.416C223.494 180.398 223.592 180.338 223.652 180.302L223.696 180.275L223.745 180.229C223.745 180.229 223.754 180.249 223.758 180.246C225.402 179.31 226.68 177.925 227.05 175.971C226.149 176.529 225.056 177.227 223.751 177.834C223.726 177.785 223.699 177.723 223.67 177.674C223.67 177.674 223.66 177.653 223.654 177.644C223.649 177.636 223.624 177.61 223.608 177.594C223.593 177.579 223.58 177.575 223.565 177.566L223.479 177.541L223.426 177.534L223.301 177.52C223.25 177.52 223.153 177.527 223.067 177.533L222.849 177.544C222.716 177.568 222.57 177.601 222.394 177.646C222.153 177.707 221.915 177.785 221.716 177.858C221.585 177.904 221.455 177.954 221.317 178.01C221.257 178.037 221.195 178.063 221.134 178.092C220.229 178.511 219.358 178.998 218.528 179.55L218.092 179.643L218.007 179.66L217.938 179.674L217.483 179.762L217.364 179.783L216.945 179.857L216.806 179.879L216.387 179.943L216.24 179.965L215.808 180.024L215.668 180.042L215.194 180.098L215.085 180.111C214.685 180.153 214.278 180.19 213.861 180.22H213.813C213.626 180.232 213.436 180.245 213.246 180.254L213.072 180.263C212.921 180.271 212.771 180.277 212.618 180.284L212.398 180.291L211.979 180.302H211.738H211.319H211.068H210.641H210.388L209.93 180.289H209.7L209.142 180.264H209.03C208.751 180.252 208.53 180.238 208.292 180.221C208.525 180.165 208.755 180.101 209.016 180.03C209.029 179.959 209.034 179.89 209.05 179.82C208.491 179.449 207.933 179.104 207.391 178.793C206.407 178.235 205.957 178.014 205.058 177.732C204.893 177.682 204.712 177.635 204.491 177.584C204.417 177.568 204.343 177.555 204.269 177.543H204.24C204.143 177.533 204.046 177.528 203.948 177.529C203.888 177.529 203.83 177.529 203.774 177.529H203.758C203.707 177.54 203.656 177.551 203.612 177.563H203.599L203.564 177.583H203.556L203.518 177.619L203.506 177.635C203.485 177.667 203.465 177.699 203.446 177.732L203.418 177.783C203.4 177.843 203.376 177.9 203.355 177.957L203.319 178.051C203.265 178.229 203.224 178.412 203.196 178.596C203.196 178.67 203.182 178.748 203.171 178.835V178.86C203.162 178.973 203.16 179.096 203.157 179.198C203.157 179.244 203.165 179.337 203.171 179.435C203.171 179.491 203.178 179.543 203.179 179.593C201.827 179.361 200.414 179.066 198.94 178.708C199.025 177.528 199.393 176.386 200.012 175.378C203.769 176.215 207.619 176.79 211.325 176.887L211.34 176.878C212.754 176.918 214.17 176.878 215.58 176.758L215.593 176.765C219.222 176.448 222.592 175.551 225.469 173.841C225.926 174.067 226.339 174.374 226.687 174.747C227.299 175.43 227.736 176.251 227.96 177.139C226.937 180.563 223.719 185.635 214.084 184.257L214.056 184.221C213.77 184.179 213.479 184.133 213.181 184.081L213.159 184.109L213.033 184.087C213.033 184.087 211.027 184.732 207.941 184.971C208 184.824 208.061 184.679 208.124 184.534C207.234 184.693 206.334 184.786 205.43 184.813H205.151C202.663 184.813 200.731 183.89 199.708 182.215C199.256 181.455 198.992 180.597 198.936 179.714C202.425 181.103 206.127 182.227 209.359 182.455L209.361 182.46Z" fill="#EDDBD3"/>
<path d="M200.925 175.287C202.995 172.715 207.008 174.549 209.238 175.82C210.764 176.699 212.215 177.702 213.576 178.82C215.727 177.046 218.14 175.443 220.739 174.493C222.529 173.841 224.765 173.704 226.182 175.213C227.708 176.847 227.916 179.834 226.906 181.773C225.409 184.65 221.398 184.271 218.762 183.738C218.426 183.671 218.092 183.599 217.759 183.511C219.21 186.146 219.834 189.157 219.551 192.152C219.346 194.556 218.737 197.046 217.635 199.208C216.817 200.812 214.408 199.398 215.224 197.799C215.293 197.659 215.355 197.527 215.417 197.388C215.419 197.383 215.421 197.377 215.424 197.372C215.449 197.312 215.502 197.183 215.523 197.13C215.619 196.892 215.707 196.649 215.794 196.404C216.016 195.775 216.201 195.133 216.359 194.485C216.452 194.103 216.532 193.718 216.602 193.33C216.668 192.989 216.714 192.644 216.741 192.298C217.12 188.615 216.104 185.211 213.572 182.538C212.376 183.749 211.47 185.215 210.92 186.826C210.322 188.63 210.222 190.364 210.408 192.298C210.408 192.337 210.451 192.672 210.452 192.703C210.476 192.868 210.501 193.031 210.529 193.196C210.593 193.586 210.669 193.976 210.765 194.362C210.918 195.023 211.104 195.675 211.323 196.317C211.408 196.568 211.5 196.815 211.602 197.062C211.636 197.147 211.669 197.231 211.704 197.316L211.717 197.344C211.784 197.497 211.856 197.652 211.929 197.802C212.745 199.401 210.338 200.815 209.518 199.211C208.412 197.041 207.83 194.566 207.602 192.154C207.308 189.171 207.929 186.168 209.382 183.546C208.08 183.879 206.746 184.07 205.402 184.118C203.448 184.172 201.373 183.621 200.3 181.858C199.134 179.933 199.559 176.987 200.925 175.287ZM219.612 181.065C219.841 181.113 220.072 181.153 220.303 181.191L220.503 181.22L220.737 181.25C221.219 181.301 221.704 181.32 222.189 181.308C222.4 181.308 222.608 181.258 222.821 181.258C222.832 181.258 222.841 181.265 222.853 181.258C222.951 181.243 223.047 181.227 223.145 181.206C223.331 181.165 223.515 181.112 223.695 181.049H223.706C223.814 180.998 223.915 180.94 224.017 180.88C224.042 180.864 224.093 180.828 224.13 180.803L224.22 180.719C224.252 180.69 224.281 180.659 224.31 180.629C224.34 180.598 224.376 180.546 224.394 180.518C224.445 180.44 224.491 180.359 224.534 180.275C224.533 180.27 224.533 180.264 224.534 180.259C224.569 180.162 224.595 180.063 224.62 179.964C224.634 179.915 224.67 179.685 224.679 179.657C224.694 179.456 224.698 179.255 224.691 179.054C224.691 178.915 224.677 178.782 224.666 178.645C224.666 178.608 224.666 178.58 224.659 178.556C224.652 178.532 224.65 178.501 224.643 178.457C224.601 178.209 224.541 177.964 224.464 177.724C224.456 177.696 224.416 177.597 224.396 177.541C224.351 177.453 224.305 177.367 224.256 177.283C224.242 177.259 224.211 177.216 224.183 177.178C224.155 177.141 224.109 177.1 224.07 177.062C224.055 177.047 224.039 177.032 224.021 177.018C223.971 176.987 223.921 176.956 223.871 176.928L223.827 176.906C223.77 176.887 223.71 176.87 223.652 176.853L223.583 176.838C223.544 176.838 223.379 176.811 223.318 176.81C223.212 176.81 222.732 176.846 222.802 176.829C222.603 176.861 222.407 176.907 222.213 176.956C221.963 177.021 221.719 177.096 221.476 177.187C221.336 177.238 221.188 177.294 221.046 177.35H221.039L220.838 177.439C219.772 177.94 218.749 178.527 217.778 179.194C217.34 179.484 216.912 179.788 216.487 180.098L216.363 180.192L216.885 180.362C217.781 180.648 218.691 180.885 219.612 181.072V181.065ZM202.481 179.734C202.515 179.907 202.562 180.078 202.621 180.245C202.583 180.119 202.748 180.479 202.811 180.584L202.819 180.594C202.878 180.661 202.942 180.721 203.006 180.782C203.019 180.795 203.033 180.806 203.048 180.817C203.105 180.856 203.164 180.892 203.222 180.927C203.281 180.962 203.38 181.014 203.461 181.054L203.555 181.086C203.768 181.158 203.987 181.214 204.209 181.255L204.361 181.279L204.653 181.304C205.206 181.335 205.76 181.321 206.311 181.261C206.382 181.261 206.451 181.245 206.525 181.237C206.533 181.237 206.804 181.198 206.858 181.191C207.129 181.148 207.397 181.096 207.665 181.043C208.223 180.929 208.782 180.788 209.34 180.633C209.83 180.496 210.315 180.346 210.796 180.183C210.609 180.044 210.422 179.904 210.237 179.774C209.428 179.194 208.589 178.656 207.725 178.162C206.712 177.584 206.213 177.34 205.257 177.046C205.052 176.981 204.839 176.93 204.635 176.882C204.541 176.861 204.448 176.846 204.356 176.829H204.314C204.126 176.813 203.937 176.808 203.749 176.817L203.656 176.825C203.578 176.841 203.501 176.859 203.425 176.881C203.398 176.888 203.355 176.903 203.317 176.917L203.215 176.973C203.192 176.987 203.153 177.014 203.119 177.037C203.086 177.061 203.056 177.097 203.026 177.129C202.995 177.162 202.974 177.187 202.946 177.22C202.918 177.254 202.883 177.321 202.852 177.372C202.812 177.441 202.775 177.512 202.742 177.584C202.837 177.389 202.677 177.777 202.657 177.841C202.59 178.07 202.538 178.303 202.502 178.539C202.526 178.4 202.48 178.776 202.478 178.789C202.467 178.922 202.464 179.056 202.462 179.188C202.455 179.287 202.498 179.787 202.481 179.741V179.734Z" fill="#FFF8F5"/>
<path d="M210.23 179.781C210.102 179.689 209.971 179.6 209.841 179.509C210.188 178.595 210.879 177.852 211.766 177.44C212.384 177.88 212.989 178.339 213.58 178.819C214.161 178.341 214.762 177.875 215.379 177.431C216.276 177.841 216.975 178.587 217.325 179.509C217.046 179.701 216.766 179.898 216.487 180.098L216.363 180.191L216.885 180.362C217.094 180.427 217.304 180.491 217.519 180.554C217.519 180.589 217.519 180.624 217.519 180.66C217.519 182.258 216.388 183.619 214.825 184.101C214.45 183.546 214.03 183.024 213.569 182.539C213.102 183.021 212.676 183.54 212.293 184.091C210.745 183.601 209.629 182.249 209.629 180.66C209.629 180.624 209.629 180.588 209.629 180.551C210.017 180.439 210.402 180.318 210.784 180.19C210.607 180.052 210.42 179.916 210.23 179.781Z" fill="#D9C5BD"/>
<path d="M213.58 183.592C211.787 183.592 210.334 182.279 210.334 180.661C210.334 179.042 211.787 177.729 213.58 177.729C215.373 177.729 216.827 179.042 216.827 180.661C216.827 182.279 215.373 183.592 213.58 183.592Z" fill="#FFF8F5"/>
<path d="M218.543 173.224L197.833 170.528L193.11 169.912C192.231 169.798 192.22 168.4 193.11 168.516L213.82 171.216L218.543 171.83C219.423 171.944 219.434 173.341 218.543 173.226V173.224Z" fill="#FFA287"/>
<path d="M219.462 167.77C219.462 167.77 217.798 162.015 210.334 163.684L214.997 169.128L219.462 167.77Z" fill="#FFA287"/>
<path d="M215.57 168.005L213.265 165.006C213.265 165.006 219.06 166.749 215.57 168.005Z" fill="#F2532E"/>
<path d="M144.272 148.77C144.272 148.77 147.732 145.236 156.459 132.666C165.624 119.463 179.628 117 202.453 117C225.279 117 237.458 119.466 246.629 132.668C255.354 145.237 258.813 148.77 258.813 148.77C258.813 148.77 243.426 158.654 207.146 158.654H195.942C159.66 158.654 144.272 148.77 144.272 148.77Z" fill="#FFD566"/>
<path d="M247.918 133.013C246.751 133.638 245.492 134.12 244.257 134.586C240.628 135.957 236.875 136.981 233.091 137.821C226.902 139.198 220.595 140.021 214.275 140.487C205.998 141.107 197.686 141.093 189.412 140.445C179.362 139.644 169.081 137.888 159.741 133.958C158.485 133.43 157.212 132.883 156.048 132.176C156.005 132.145 155.975 132.1 155.964 132.049C155.953 131.998 155.962 131.944 155.988 131.899C156.015 131.853 156.057 131.82 156.107 131.804C156.157 131.789 156.212 131.793 156.259 131.816C157.385 132.5 158.62 133.031 159.831 133.545C163.399 135.059 167.132 136.197 170.892 137.121C185.128 140.637 200.157 141.131 214.733 140.034C224.756 139.28 234.996 137.682 244.428 134.074C245.549 133.669 246.642 133.195 247.703 132.653C247.94 132.525 248.152 132.886 247.914 133.013H247.918Z" fill="#FFC329"/>
<path d="M253.78 141.876C251.177 143.234 248.325 144.204 245.545 145.107C237.857 147.604 229.863 149.132 221.837 150.013C209.22 151.396 196.435 151.064 183.859 149.473C172.116 147.988 160.533 145.365 149.219 141.898C148.962 141.819 149.079 141.415 149.331 141.494C164.706 146.207 180.595 149.342 196.667 150.218C207.993 150.837 219.417 150.32 230.593 148.347C237.088 147.199 243.548 145.575 249.706 143.182C251.024 142.696 252.314 142.137 253.57 141.508C253.809 141.382 254.021 141.743 253.781 141.868L253.78 141.876Z" fill="#FFC329"/>
<path d="M202.451 135.788C181.244 135.788 163.683 132.28 160.632 127.707C169.746 118.821 182.848 117.001 202.453 117.001C222.725 117.001 234.608 118.948 243.435 128.638C238.776 132.748 222.194 135.788 202.451 135.788Z" fill="#FFDC82"/>
<path d="M147.333 148.34C148.414 146.334 149.826 144.473 151.185 142.656C152.965 140.284 154.845 137.976 156.777 135.721C158.079 134.199 159.408 132.698 160.763 131.22C161.863 130.012 162.95 128.795 164.202 127.743C168.278 124.318 173.496 122.482 178.641 121.398C183.586 120.357 188.673 120.002 193.715 120.025C194.5 120.025 195.288 120.04 196.078 120.062C189.318 118.996 182.267 118.925 175.615 120.586C175.29 120.667 174.966 120.756 174.638 120.845C174.117 120.985 173.897 120.184 174.416 120.039C181.559 118.041 189.16 118.142 196.44 119.279C197.292 119.412 198.142 119.563 198.99 119.73C195.843 118.613 192.431 118.35 189.112 118.387C188.571 118.387 188.573 117.55 189.112 117.55C192.601 117.509 196.17 117.815 199.465 119.011C200.305 119.296 201.113 119.67 201.873 120.128C201.861 119.315 201.851 118.501 201.841 117.687C201.832 117.147 202.67 117.147 202.678 117.687C202.686 118.412 202.696 119.135 202.706 119.858C203.119 119.602 203.556 119.384 204.01 119.209C205.22 118.701 206.515 118.382 207.793 118.093C209.016 117.821 210.249 117.601 211.492 117.433C212.034 117.359 212.819 117.13 213.366 117.293C213.884 117.444 213.664 118.252 213.145 118.1C213.238 118.128 213.163 118.1 213.072 118.107C212.981 118.114 212.854 118.118 212.747 118.128C212.366 118.158 211.985 118.207 211.606 118.259C210.451 118.418 209.302 118.627 208.162 118.873C207.432 119.029 206.706 119.205 205.99 119.415L206.213 119.378C211.378 118.587 216.755 119.064 221.914 119.657C225.279 120.041 228.641 120.535 231.963 121.182L232.073 121.204C232.604 121.309 232.379 122.117 231.851 122.011C228.965 121.436 226.042 121.004 223.124 120.639C217.911 119.988 212.537 119.498 207.295 120.08L207.061 120.108L208.045 120.076C212.874 119.937 217.725 120.164 222.5 120.914C227.768 121.739 233.094 123.263 237.588 126.217C239.048 127.175 240.55 128.311 241.645 129.687L243.954 132.58L256.482 148.255C256.815 148.673 256.226 149.269 255.89 148.846L242.862 132.516C242.219 131.71 241.576 130.903 240.933 130.097C239.613 128.444 237.652 127.15 235.842 126.102C231.142 123.381 225.691 122.104 220.349 121.433C217.402 121.062 214.437 120.855 211.467 120.813C215.071 121.076 218.651 121.602 222.178 122.389C226.062 123.275 229.928 124.573 233.352 126.647C234.997 127.645 236.605 128.861 237.793 130.393C238.002 130.65 238.189 130.924 238.351 131.213C238.262 131.044 238.423 131.299 238.501 131.394L239.4 132.474C244.285 138.336 249.259 144.158 253.992 150.151C254.164 150.345 254.32 150.552 254.458 150.771C254.714 151.246 253.991 151.668 253.734 151.19C253.386 150.544 252.667 149.826 252.147 149.185C250.93 147.69 249.706 146.201 248.476 144.719C245.685 141.338 242.885 137.962 240.077 134.59C239.2 133.537 238.212 132.522 237.468 131.37C236.724 130.219 235.466 129.115 234.258 128.25C231.362 126.175 227.977 124.848 224.573 123.871C219.442 122.4 214.105 121.744 208.769 121.482C213.138 122.21 217.46 123.221 221.633 124.692C225.052 125.898 228.454 127.432 231.35 129.642C232.376 130.425 233.457 131.317 234.16 132.421V132.43C234.196 132.474 234.234 132.519 234.27 132.569L235.108 133.602L238.372 137.579C242.13 142.177 245.886 146.776 249.643 151.374C249.982 151.793 249.393 152.384 249.051 151.966L235.813 135.764C234.94 134.696 234.058 133.637 233.221 132.543C233.297 132.643 233.108 132.403 233.067 132.357C232.968 132.241 232.866 132.127 232.763 132.015C232.494 131.725 232.205 131.457 231.913 131.185C231.001 130.381 230.02 129.658 228.982 129.026C225.982 127.159 222.656 125.846 219.296 124.792C215.348 123.554 211.29 122.699 207.196 122.065C207.355 122.135 207.513 122.205 207.671 122.279C208.229 122.458 208.791 122.641 209.357 122.826C214.031 124.361 218.72 126.092 223.049 128.458C224.779 129.404 226.525 130.488 227.889 131.933C228.519 132.601 228.926 133.411 229.469 134.142L235.947 142.882L243.796 153.458C243.968 153.689 243.777 153.992 243.546 154.073C241.961 154.632 240.363 155.155 238.753 155.632C237.93 155.877 237.078 156.147 236.224 156.23C235.829 156.267 235.631 156.09 235.441 155.79C233.736 153.046 231.972 150.336 230.231 147.612C227.962 144.063 225.69 140.514 223.416 136.967C222.971 136.272 222.525 135.574 222.079 134.874C222.199 135.062 222.067 134.874 222.023 134.818C221.883 134.653 221.735 134.491 221.589 134.331C221.058 133.743 220.514 133.168 219.957 132.606C217.589 130.168 215.004 127.95 212.235 125.98C210.629 124.828 208.924 123.822 207.14 122.974C205.764 122.538 204.381 122.127 202.992 121.74C204.886 123.619 206.761 125.516 208.618 127.432C210.187 129.051 211.746 130.681 213.241 132.368C213.77 132.964 214.288 133.571 214.776 134.204C215.029 134.535 215.302 134.886 215.417 135.294C215.725 136.396 216.187 137.471 216.592 138.542C217.346 140.535 218.11 142.524 218.884 144.508C220.418 148.464 221.964 152.415 223.52 156.361L224.232 158.168C224.247 158.221 224.251 158.277 224.244 158.331C224.237 158.386 224.22 158.439 224.192 158.487C224.165 158.534 224.129 158.576 224.085 158.61C224.042 158.644 223.992 158.669 223.939 158.683L212.433 160.311C212.326 160.338 212.213 160.323 212.117 160.268C212.021 160.214 211.95 160.125 211.918 160.019C209.99 153.339 208.064 146.659 206.141 139.978C204.865 135.555 203.721 131.098 202.604 126.638V158.096C202.604 158.636 201.767 158.636 201.767 158.096V124.897C200.79 128.956 199.786 133.027 198.6 137.03C196.5 144.126 194.397 151.222 192.292 158.318C192.242 158.489 192.19 158.661 192.139 158.833C192.114 158.921 192.062 158.999 191.989 159.054C191.916 159.11 191.827 159.14 191.735 159.14L180.062 158.7C179.815 158.692 179.554 158.435 179.658 158.171C182.31 151.451 184.973 144.733 187.515 137.971C187.874 137.015 188.157 136.006 188.557 135.068C188.754 134.606 189.116 134.2 189.421 133.812C189.96 133.135 190.538 132.487 191.114 131.845C194.076 128.555 197.211 125.416 200.344 122.29L200.891 121.745C199.513 122.133 198.142 122.546 196.777 122.982C195.768 123.454 194.784 123.981 193.832 124.559C191.269 126.095 188.909 127.968 186.689 129.965C185.188 131.315 183.755 132.737 182.39 134.23C182.194 134.445 181.999 134.663 181.809 134.885C181.833 134.86 181.755 134.959 181.731 134.997C181.646 135.129 181.561 135.262 181.477 135.394C177.383 141.784 173.293 148.179 169.207 154.579C168.928 155.008 168.659 155.438 168.391 155.874C168.039 156.443 167.302 156.192 166.759 156.068C164.582 155.571 162.446 154.812 160.339 154.069C160.108 153.988 159.92 153.685 160.089 153.454L172.548 136.667L174.702 133.765C174.893 133.509 175.022 133.228 175.193 132.956C175.647 132.283 176.194 131.678 176.818 131.158C178.424 129.763 180.325 128.699 182.219 127.742C184.471 126.623 186.778 125.62 189.132 124.738C191.581 123.801 194.061 122.936 196.574 122.145L196.785 122.051C191.825 122.805 186.908 123.902 182.19 125.596C178.875 126.788 175.549 128.31 172.77 130.508C172.104 131.027 171.485 131.604 170.921 132.233C170.731 132.422 170.567 132.635 170.433 132.867C170.072 133.467 169.506 134.006 169.065 134.542L165.616 138.762L154.831 151.971C154.489 152.39 153.9 151.794 154.238 151.38L167.478 135.175C168.201 134.288 168.924 133.404 169.648 132.523L169.716 132.44L169.733 132.413C169.821 132.273 169.919 132.152 170.012 132.025C171.161 130.547 172.754 129.397 174.321 128.406C177.371 126.48 180.776 125.127 184.204 124.041C187.776 122.931 191.423 122.075 195.116 121.48C190.597 121.709 186.094 122.242 181.693 123.288C177.895 124.191 174.124 125.501 170.807 127.596C169.247 128.556 167.852 129.761 166.675 131.164C166.513 131.361 166.315 131.722 166.053 131.824C165.941 131.927 165.838 132.039 165.734 132.151C165.356 132.56 164.992 132.988 164.629 133.407C161.906 136.572 159.274 139.817 156.639 143.055C154.52 145.658 152.338 148.257 150.328 150.929C150.26 151.012 150.197 151.101 150.141 151.194C149.886 151.671 149.164 151.248 149.417 150.775C149.813 150.037 150.489 149.368 151.007 148.718C152.189 147.229 153.381 145.746 154.581 144.27C157.356 140.845 160.143 137.431 162.984 134.056C163.758 133.136 164.519 132.187 165.365 131.33C165.447 131.245 165.537 131.167 165.633 131.097L165.648 131.088C165.674 131.051 165.788 130.949 165.828 130.894C166.793 129.689 167.915 128.618 169.164 127.711C171.941 125.663 175.2 124.305 178.48 123.296C182.782 121.97 187.265 121.257 191.759 120.877C188.243 120.919 184.734 121.216 181.261 121.766C175.969 122.626 170.622 124.192 166.178 127.28C163.402 129.208 161.228 131.909 159.008 134.424C156.83 136.892 154.714 139.418 152.704 142.027C151.054 144.169 149.335 146.38 148.048 148.771C147.801 149.237 147.078 148.814 147.333 148.34ZM217.058 128.723C218.708 130.161 220.279 131.685 221.767 133.29C222.186 133.739 222.624 134.179 222.957 134.696C226.996 141 231.029 147.306 235.057 153.616C235.405 154.16 235.75 154.705 236.095 155.251L236.181 155.391C236.223 155.39 236.265 155.386 236.307 155.38C236.541 155.346 236.774 155.292 237.005 155.24C238.959 154.781 240.869 154.124 242.762 153.461L230.619 137.093L228.465 134.191C228.274 133.934 228.146 133.652 227.973 133.382C227.537 132.696 226.927 132.125 226.31 131.605C224.647 130.209 222.668 129.155 220.728 128.202C218.437 127.079 216.069 126.12 213.681 125.229C212.966 124.963 212.247 124.704 211.528 124.449C213.465 125.749 215.312 127.176 217.058 128.723ZM181.019 129.317C179.327 130.258 177.607 131.333 176.334 132.815C175.809 133.426 175.421 134.19 174.938 134.843L168.163 143.972L161.124 153.455C162.52 153.938 163.934 154.4 165.355 154.821C166.099 155.042 166.919 155.35 167.705 155.388C167.778 155.271 167.845 155.154 167.926 155.036C169.827 152.017 171.758 149.018 173.682 146.013C175.848 142.625 178.016 139.239 180.186 135.853C180.512 135.345 180.804 134.768 181.199 134.308C182.104 133.262 183.071 132.266 184.055 131.295C186.489 128.864 189.147 126.668 191.992 124.735C192.165 124.619 192.341 124.503 192.517 124.39C188.571 125.751 184.659 127.292 181.019 129.317ZM206.075 136.759L212.385 158.635L212.62 159.448L223.244 157.945C220.649 151.375 218.049 144.806 215.568 138.193C215.33 137.565 215.096 136.937 214.87 136.302C214.779 136.048 214.634 135.544 214.579 135.426C214.36 134.952 213.983 134.532 213.655 134.133C213.076 133.426 212.465 132.747 211.851 132.071C208.896 128.825 205.792 125.711 202.684 122.614L202.392 122.325L202.375 122.393C203.574 127.189 204.706 132.011 206.075 136.759ZM195.856 128.026C194.287 129.645 192.728 131.275 191.233 132.963C190.551 133.733 189.516 134.756 189.244 135.63C188.227 138.896 186.839 142.08 185.603 145.268C184.098 149.143 182.583 153.015 181.057 156.883C180.926 157.216 180.793 157.551 180.662 157.886L191.421 158.29L197.25 138.61C198.838 133.252 200.136 127.809 201.51 122.381C201.51 122.361 201.5 122.341 201.494 122.322C199.596 124.205 197.717 126.107 195.856 128.026ZM166.016 131.838C166.028 131.837 166.026 131.837 166.016 131.838V131.838Z" fill="#FFE297"/>
<path d="M195.127 121.946C195.127 123.102 198.219 124.04 202.033 124.04C205.848 124.04 208.938 123.102 208.938 121.946C208.938 120.791 205.846 119.853 202.033 119.853C198.22 119.853 195.127 120.791 195.127 121.946Z" fill="#FFCA29"/>
<path d="M196.436 120.923C196.436 121.9 199.048 122.692 202.269 122.692C205.49 122.692 208.1 121.9 208.1 120.923C208.1 119.946 205.489 119.155 202.269 119.155C199.049 119.155 196.436 119.946 196.436 120.923Z" fill="#FFD566"/>
<path d="M260.101 149.841C259.09 150.428 258.045 150.957 256.973 151.424C253.844 152.834 250.627 154.042 247.343 155.04C235.106 158.822 222.179 160.329 209.404 160.533C201.14 160.664 192.841 160.281 184.609 159.57C178.353 159.05 172.126 158.217 165.954 157.074C159.108 155.782 152.202 154.063 145.855 151.127C144.761 150.62 143.614 150.091 142.632 149.378C142.018 148.931 141.718 148.173 142.131 147.469C142.487 146.862 143.424 146.52 144.041 146.968C144.598 147.35 145.182 147.693 145.788 147.992C146.554 148.393 147.339 148.76 148.13 149.109L148.485 149.262C148.795 149.395 148.172 149.131 148.585 149.304C148.871 149.424 149.16 149.54 149.449 149.654C150.074 149.903 150.704 150.14 151.338 150.366C160.022 153.486 169.264 155.087 178.399 156.153C186.076 157.049 193.808 157.504 201.536 157.688C209.544 157.885 217.552 157.625 225.511 156.694C235.194 155.561 244.941 153.452 253.971 149.706L254.208 149.607C253.801 149.777 254.171 149.622 254.256 149.586C254.448 149.504 254.64 149.421 254.832 149.336C255.178 149.185 255.522 149.029 255.865 148.87C256.397 148.624 256.926 148.369 257.448 148.101C257.866 147.887 258.285 147.671 258.689 147.428C260.232 146.493 261.634 148.908 260.097 149.839L260.101 149.841Z" fill="#FFCA29"/>
<path d="M225.444 192.946C225.444 192.946 225.096 190.266 227.547 189.456C229.998 188.647 231.685 189.493 232.258 191.448C233.42 195.42 228.396 196.773 226.648 194.958L225.444 192.946Z" fill="#5C7A96"/>
<path d="M225.165 193.783C225.165 193.783 224.817 191.103 227.268 190.294C229.719 189.484 231.406 190.33 231.979 192.286C233.141 196.258 228.117 197.61 226.369 195.796L225.165 193.783Z" fill="#FEC6A7"/>
<path d="M228.873 193.67C228.845 193.81 228.302 195.282 228.916 196.06C229.53 196.837 233.704 197.471 231.979 192.291C231.979 192.291 229.923 191.784 229.825 191.72C229.727 191.656 228.894 192.279 228.894 192.279L228.873 193.67Z" fill="#FEC6A7"/>
<path d="M230.438 196.69C231.154 196.69 231.743 196.42 232.097 195.928C232.647 195.166 232.643 193.93 232.085 192.251L232.065 192.193L232.005 192.178C231.242 191.99 229.988 191.671 229.879 191.62C229.857 191.606 229.831 191.6 229.805 191.6C229.635 191.6 229.12 191.967 228.828 192.186L228.785 192.218L228.763 193.659C228.763 193.676 228.75 193.703 228.739 193.74C228.619 194.15 228.251 195.396 228.828 196.129C229.084 196.449 229.773 196.69 230.438 196.69ZM231.893 192.379C232.401 193.934 232.41 195.116 231.917 195.798C231.498 196.382 230.81 196.468 230.438 196.468C229.784 196.468 229.181 196.22 229.003 195.991C228.666 195.564 228.65 194.828 228.951 193.801C228.968 193.747 228.978 193.709 228.982 193.691V193.671L229.003 192.33C229.25 192.135 229.515 191.965 229.796 191.822C230.022 191.911 231.163 192.199 231.893 192.379Z" fill="#FF9270"/>
<path d="M230.093 195.01C230.679 195.01 231.325 194.92 231.794 194.608C231.965 194.497 232.11 194.351 232.219 194.18C232.329 194.009 232.401 193.816 232.431 193.615L232.212 193.579C232.187 193.75 232.126 193.914 232.033 194.06C231.939 194.205 231.816 194.329 231.671 194.424C230.672 195.089 228.687 194.636 228.668 194.631L228.618 194.846C229.102 194.952 229.597 195.007 230.093 195.01Z" fill="#FF9270"/>
<path d="M229.211 189.572C228.882 190.235 228.829 191.001 229.065 191.703C229.3 192.404 229.805 192.983 230.467 193.313L231.468 193.81C232.131 194.136 232.896 194.187 233.597 193.952C234.297 193.717 234.877 193.214 235.208 192.554L237.377 188.177C237.704 187.514 237.755 186.748 237.52 186.047C237.285 185.347 236.782 184.767 236.121 184.436L235.12 183.939C234.457 183.613 233.692 183.562 232.991 183.797C232.291 184.032 231.711 184.535 231.38 185.195L229.211 189.572Z" fill="#FFD157"/>
<path d="M232.708 184.766L236.96 186.873L236.898 186.998L232.646 184.891L232.708 184.766Z" fill="#FFC71C"/>
<path d="M232.898 185.639L236.275 187.312L236.213 187.438L232.836 185.764L232.898 185.639Z" fill="#FFC71C"/>
<path d="M233.527 186.885L235.028 187.628L234.966 187.753L233.465 187.01L233.527 186.885Z" fill="#FFC71C"/>
<path d="M232.059 187.244L235.31 188.856L235.248 188.981L231.997 187.369L232.059 187.244Z" fill="#FFC71C"/>
<path d="M232.284 188.138L234.035 189.005L233.973 189.13L232.222 188.263L232.284 188.138Z" fill="#FFC71C"/>
<path d="M231.726 189.262L233.727 190.254L233.665 190.379L231.664 189.387L231.726 189.262Z" fill="#FFC71C"/>
<path d="M230.979 190.139L233.981 191.626L233.919 191.751L230.917 190.264L230.979 190.139Z" fill="#FFC71C"/>
<path d="M231.366 190.794L233.242 191.724L233.18 191.849L231.304 190.919L231.366 190.794Z" fill="#FFC71C"/>
<path d="M229.763 191.247L233.765 193.231L233.703 193.356L229.701 191.372L229.763 191.247Z" fill="#FFC71C"/>
<path d="M234.143 184.384L236.894 185.748L236.832 185.873L234.081 184.509L234.143 184.384Z" fill="#FFC71C"/>
<path d="M233.735 184.493L236.611 185.919L236.549 186.044L233.673 184.618L233.735 184.493Z" fill="#FFC71C"/>
<path d="M234.434 188.11L236.184 188.978L236.122 189.103L234.372 188.235L234.434 188.11Z" fill="#FFC71C"/>
<path d="M234.348 189.628L235.724 190.31L235.662 190.435L234.286 189.753L234.348 189.628Z" fill="#FFC71C"/>
<path d="M233.692 190.235L235.193 190.979L235.131 191.104L233.63 190.36L233.692 190.235Z" fill="#FFC71C"/>
<path d="M233.133 190.736L234.758 191.542L234.696 191.667L233.071 190.861L233.133 190.736Z" fill="#FFC71C"/>
<path d="M232.92 191.88L233.921 192.376L233.859 192.501L232.858 192.005L232.92 191.88Z" fill="#FFC71C"/>
<path d="M230.984 191.387L232.609 192.193L232.548 192.318L230.922 191.512L230.984 191.387Z" fill="#FFC71C"/>
<path d="M230.551 192.574L232.427 193.504L232.365 193.629L230.489 192.699L230.551 192.574Z" fill="#FFC71C"/>
<path d="M229.788 189.083L232.039 190.199L231.977 190.324L229.726 189.208L229.788 189.083Z" fill="#FFC71C"/>
<path d="M230.815 188.185L231.69 188.619L231.628 188.744L230.753 188.31L230.815 188.185Z" fill="#FFC71C"/>
<path d="M230.5 187.561L231.625 188.119L231.563 188.244L230.438 187.686L230.5 187.561Z" fill="#FFC71C"/>
<path d="M231.618 186.247L232.869 186.867L232.807 186.992L231.556 186.372L231.618 186.247Z" fill="#FFC71C"/>
<path d="M231.491 185.562L233.117 186.367L233.055 186.492L231.429 185.687L231.491 185.562Z" fill="#FFC71C"/>
<path d="M233.859 184.242L235.86 185.234L235.798 185.359L233.797 184.367L233.859 184.242Z" fill="#FFC71C"/>
<path d="M228.037 190.417C228.037 190.417 232.922 190.291 232.976 190.732C233.031 191.173 233.131 193.148 229.642 192.442C229.642 192.442 230.577 194.425 227.976 194.408L228.037 190.417Z" fill="#FEC6A7"/>
<path d="M228.005 194.524C228.87 194.524 229.449 194.3 229.729 193.864C230.008 193.429 229.902 192.873 229.811 192.59C231.135 192.829 232.079 192.697 232.618 192.199C233.126 191.729 233.129 191.07 233.087 190.718C233.069 190.579 233.041 190.347 230.488 190.3C229.272 190.276 228.047 190.308 228.034 190.308V190.53C230.245 190.473 232.64 190.542 232.862 190.76C232.898 191.071 232.891 191.639 232.461 192.037C231.953 192.508 231.007 192.608 229.653 192.334L229.437 192.291L229.53 192.491C229.53 192.491 229.868 193.226 229.53 193.747C229.292 194.12 228.761 194.305 227.96 194.305V194.524H228.005Z" fill="#FF9270"/>
</svg>
