<svg width="172" height="184" viewBox="0 0 172 184" fill="none" xmlns="http://www.w3.org/2000/svg">
<path fill-rule="evenodd" clip-rule="evenodd" d="M17.7334 111.565L7.39654 101.229L7.26155 101.094L3.70787 97.5399L2.69812 96.5302C0.114175 93.9462 0.114026 89.718 2.69812 87.1339L3.85268 85.9794L7.26155 82.5705L7.39654 82.4355L18.6607 71.1714L89.8319 9.70545e-05C101.962 12.1299 99.9749 29.3236 88.3488 40.9497L38.3942 90.9043L37.783 91.5155C35.993 93.3055 35.993 96.234 37.7829 98.024L37.7836 98.024C39.5735 99.814 42.5018 99.8143 44.2917 98.0243L44.903 97.4131L66.4126 75.9034L85.8977 95.3892L64.3881 116.899L90.1682 142.678C101.532 154.042 101.532 172.636 90.1679 184L43.7274 137.559L24.242 118.074L17.7332 111.565L17.7334 111.565Z" fill="#7622FF"/>
<path fill-rule="evenodd" clip-rule="evenodd" d="M106.691 74.5965L90.9362 90.351L71.4508 70.8656L90.0611 52.2552L90.1448 52.1715C98.9083 43.408 115.17 25.338 101.796 11.964L116.074 26.2422L135.56 45.7277L135.469 45.8184L135.521 45.8734C135.938 46.1697 136.336 46.5038 136.709 46.8768L143.784 53.9523C147.417 57.5852 147.417 63.529 143.784 67.1622C143.684 67.2621 143.583 67.3587 143.48 67.4525L152.293 76.266L165.182 89.1551L165.836 89.8089L168.452 92.425C172.018 95.9908 172.104 101.77 168.713 105.443L168.719 105.449L168.452 105.716L165.836 108.332L153.131 121.037L102.801 171.367C112.085 162.083 98.8781 141.864 98.8781 141.864L136.457 104.363L136.961 103.859C138.647 102.173 138.647 99.4147 136.961 97.7288L136.961 97.7285C135.274 96.0429 132.516 96.0426 130.83 97.7285L130.327 98.2324L94.1435 134.415L76.6377 116.91L113.324 80.2228C115.01 78.5369 115.01 75.7787 113.325 74.0929L113.324 74.0929C111.638 72.4067 108.88 72.4065 107.194 74.0925L106.691 74.5964L106.691 74.5965Z" fill="#FFB942"/>
</svg>
