<svg width="370" height="106" viewBox="0 0 370 106" fill="none" xmlns="http://www.w3.org/2000/svg">
<path d="M105.464 76C104.048 76 102.886 75.5703 101.976 74.711C101.117 73.8011 100.687 72.689 100.687 71.3747V27.5481C100.687 26.2339 101.117 25.147 101.976 24.2877C102.886 23.3778 103.998 22.9229 105.312 22.9229H129.955C131.269 22.9229 132.356 23.3525 133.216 24.2119C134.125 25.0207 134.58 26.0822 134.58 27.3965C134.58 28.5086 134.125 29.4943 133.216 30.3537C132.356 31.213 131.269 31.6427 129.955 31.6427H109.482L110.165 30.7328V45.9735L109.634 44.9878H126.543C127.857 44.9878 128.944 45.4175 129.803 46.2768C130.713 47.0856 131.168 48.1471 131.168 49.4614C131.168 50.5735 130.713 51.5592 129.803 52.4186C128.944 53.2779 127.857 53.7076 126.543 53.7076H109.482L110.165 53.0252V71.3747C110.165 72.689 109.685 73.8011 108.724 74.711C107.814 75.5703 106.728 76 105.464 76ZM146.389 76C145.075 76 143.988 75.5703 143.128 74.711C142.269 73.8011 141.839 72.689 141.839 71.3747V40.0592C141.839 38.7449 142.269 37.6581 143.128 36.7987C143.988 35.8888 145.075 35.4339 146.389 35.4339C147.703 35.4339 148.79 35.8888 149.649 36.7987C150.509 37.6581 150.938 38.7449 150.938 40.0592V47.1867L150.408 42.1064C150.964 40.8933 151.671 39.8317 152.531 38.9218C153.441 37.9614 154.452 37.1779 155.564 36.5713C156.676 35.9141 157.864 35.4339 159.127 35.1306C160.391 34.8273 161.655 34.6756 162.919 34.6756C164.435 34.6756 165.699 35.1053 166.71 35.9647C167.771 36.824 168.302 37.835 168.302 38.9976C168.302 40.6658 167.872 41.879 167.013 42.6372C166.154 43.3449 165.219 43.6988 164.208 43.6988C163.247 43.6988 162.363 43.5218 161.554 43.168C160.796 42.8141 159.911 42.6372 158.9 42.6372C157.99 42.6372 157.055 42.8647 156.094 43.3196C155.185 43.724 154.325 44.3812 153.516 45.2911C152.758 46.201 152.126 47.3383 151.621 48.7032C151.166 50.0175 150.938 51.5845 150.938 53.4043V71.3747C150.938 72.689 150.509 73.8011 149.649 74.711C148.79 75.5703 147.703 76 146.389 76ZM192.121 76.7582C187.824 76.7582 184.084 75.8736 180.899 74.1044C177.765 72.2846 175.339 69.8329 173.62 66.7494C171.952 63.6659 171.118 60.178 171.118 56.2856C171.118 51.7362 172.028 47.8691 173.847 44.6845C175.718 41.4493 178.144 38.9724 181.127 37.2537C184.109 35.535 187.268 34.6756 190.605 34.6756C193.183 34.6756 195.609 35.2064 197.884 36.268C200.209 37.3295 202.256 38.7954 204.026 40.6658C205.795 42.4856 207.185 44.6087 208.196 47.035C209.257 49.4614 209.788 52.0395 209.788 54.7691C209.738 55.9823 209.257 56.9681 208.348 57.7263C207.438 58.4845 206.376 58.8637 205.163 58.8637H176.198L173.923 51.2812H201.751L200.083 52.7977V50.7504C199.982 49.2845 199.451 47.9702 198.49 46.8076C197.58 45.6449 196.418 44.735 195.002 44.0779C193.638 43.3702 192.172 43.0163 190.605 43.0163C189.088 43.0163 187.673 43.2185 186.358 43.6229C185.044 44.0273 183.907 44.7098 182.946 45.6702C181.986 46.6306 181.228 47.9197 180.672 49.5373C180.116 51.1548 179.838 53.2021 179.838 55.679C179.838 58.4087 180.394 60.734 181.506 62.6549C182.668 64.5252 184.134 65.9659 185.903 66.9769C187.723 67.9373 189.644 68.4176 191.666 68.4176C193.536 68.4176 195.028 68.2659 196.14 67.9626C197.252 67.6593 198.137 67.3055 198.794 66.9011C199.501 66.4461 200.133 66.067 200.689 65.7637C201.599 65.3087 202.459 65.0813 203.267 65.0813C204.379 65.0813 205.289 65.4604 205.997 66.2186C206.755 66.9769 207.134 67.8615 207.134 68.8725C207.134 70.2373 206.427 71.4758 205.011 72.5879C203.697 73.7 201.852 74.6857 199.476 75.5451C197.1 76.3538 194.649 76.7582 192.121 76.7582ZM236.846 76.7582C232.549 76.7582 228.808 75.8736 225.624 74.1044C222.49 72.2846 220.063 69.8329 218.345 66.7494C216.676 63.6659 215.842 60.178 215.842 56.2856C215.842 51.7362 216.752 47.8691 218.572 44.6845C220.442 41.4493 222.869 38.9724 225.851 37.2537C228.834 35.535 231.993 34.6756 235.329 34.6756C237.907 34.6756 240.334 35.2064 242.608 36.268C244.934 37.3295 246.981 38.7954 248.75 40.6658C250.519 42.4856 251.91 44.6087 252.921 47.035C253.982 49.4614 254.513 52.0395 254.513 54.7691C254.462 55.9823 253.982 56.9681 253.072 57.7263C252.162 58.4845 251.101 58.8637 249.888 58.8637H220.923L218.648 51.2812H246.475L244.807 52.7977V50.7504C244.706 49.2845 244.175 47.9702 243.215 46.8076C242.305 45.6449 241.142 44.735 239.727 44.0779C238.362 43.3702 236.896 43.0163 235.329 43.0163C233.813 43.0163 232.397 43.2185 231.083 43.6229C229.769 44.0273 228.631 44.7098 227.671 45.6702C226.71 46.6306 225.952 47.9197 225.396 49.5373C224.84 51.1548 224.562 53.2021 224.562 55.679C224.562 58.4087 225.118 60.734 226.23 62.6549C227.393 64.5252 228.859 65.9659 230.628 66.9769C232.448 67.9373 234.369 68.4176 236.391 68.4176C238.261 68.4176 239.752 68.2659 240.864 67.9626C241.976 67.6593 242.861 67.3055 243.518 66.9011C244.226 66.4461 244.858 66.067 245.414 65.7637C246.324 65.3087 247.183 65.0813 247.992 65.0813C249.104 65.0813 250.014 65.4604 250.722 66.2186C251.48 66.9769 251.859 67.8615 251.859 68.8725C251.859 70.2373 251.151 71.4758 249.736 72.5879C248.422 73.7 246.577 74.6857 244.201 75.5451C241.825 76.3538 239.373 76.7582 236.846 76.7582Z" fill="#7622FF"/>
<path d="M267.998 22.847C268.705 22.847 269.438 23.0492 270.197 23.4536C271.005 23.8075 271.612 24.2877 272.016 24.8943L290.442 53.2527L286.651 53.101L305.531 24.8943C306.491 23.5294 307.73 22.847 309.246 22.847C310.459 22.847 311.546 23.2767 312.507 24.136C313.467 24.9954 313.947 26.1075 313.947 27.4723V71.3747C313.947 72.689 313.518 73.8011 312.658 74.711C311.799 75.5703 310.662 76 309.246 76C307.831 76 306.668 75.5703 305.758 74.711C304.899 73.8011 304.469 72.689 304.469 71.3747V35.6614L307.426 36.3438L291.958 59.9252C291.503 60.4813 290.922 60.9615 290.214 61.3659C289.557 61.7703 288.875 61.9472 288.167 61.8966C287.51 61.9472 286.827 61.7703 286.12 61.3659C285.463 60.9615 284.907 60.4813 284.452 59.9252L269.969 37.0262L271.941 33.0075V71.3747C271.941 72.689 271.536 73.8011 270.727 74.711C269.919 75.5703 268.857 76 267.543 76C266.279 76 265.243 75.5703 264.434 74.711C263.625 73.8011 263.221 72.689 263.221 71.3747V27.4723C263.221 26.2086 263.676 25.1218 264.586 24.2119C265.546 23.302 266.683 22.847 267.998 22.847ZM343.696 76.7582C339.399 76.7582 335.659 75.8736 332.474 74.1044C329.34 72.2846 326.914 69.8329 325.195 66.7494C323.527 63.6659 322.693 60.178 322.693 56.2856C322.693 51.7362 323.603 47.8691 325.422 44.6845C327.293 41.4493 329.719 38.9724 332.701 37.2537C335.684 35.535 338.843 34.6756 342.18 34.6756C344.758 34.6756 347.184 35.2064 349.459 36.268C351.784 37.3295 353.831 38.7954 355.6 40.6658C357.37 42.4856 358.76 44.6087 359.771 47.035C360.832 49.4614 361.363 52.0395 361.363 54.7691C361.313 55.9823 360.832 56.9681 359.922 57.7263C359.013 58.4845 357.951 58.8637 356.738 58.8637H327.773L325.498 51.2812H353.326L351.658 52.7977V50.7504C351.557 49.2845 351.026 47.9702 350.065 46.8076C349.155 45.6449 347.993 44.735 346.577 44.0779C345.213 43.3702 343.747 43.0163 342.18 43.0163C340.663 43.0163 339.248 43.2185 337.933 43.6229C336.619 44.0273 335.482 44.7098 334.521 45.6702C333.561 46.6306 332.803 47.9197 332.247 49.5373C331.691 51.1548 331.412 53.2021 331.412 55.679C331.412 58.4087 331.969 60.734 333.081 62.6549C334.243 64.5252 335.709 65.9659 337.478 66.9769C339.298 67.9373 341.219 68.4176 343.241 68.4176C345.111 68.4176 346.603 68.2659 347.715 67.9626C348.827 67.6593 349.711 67.3055 350.369 66.9011C351.076 66.4461 351.708 66.067 352.264 65.7637C353.174 65.3087 354.033 65.0813 354.842 65.0813C355.954 65.0813 356.864 65.4604 357.572 66.2186C358.33 66.9769 358.709 67.8615 358.709 68.8725C358.709 70.2373 358.002 71.4758 356.586 72.5879C355.272 73.7 353.427 74.6857 351.051 75.5451C348.675 76.3538 346.224 76.7582 343.696 76.7582Z" fill="#FFB942"/>
<path d="M38.1105 92.394C25.8177 80.7414 13.9398 69.5155 2.09753 58.2659C-1.66024 54.7097 0.248279 51.509 3.0103 48.5573C11.7824 39.2084 20.5861 29.8831 29.4214 20.5815C33.0487 16.7408 36.7472 12.9119 40.422 9C45.1637 16.4326 44.6777 23.8177 39.1181 29.9345C32.8709 36.7862 26.3867 43.3771 20.1514 50.3118C19.1082 51.4972 18.966 53.4768 18.4681 55.0534L20.4359 55.9899C23.5891 52.6233 26.7305 49.2449 30.18 45.5464L38.0512 53.0026L28.3308 63.6714C35.384 71.59 47.6649 77.7541 38.1105 92.394Z" fill="#7622FF"/>
<path d="M43.5275 73.5106C48.9686 66.6233 56.6619 60.6132 61.3088 52.2442L40.6707 71.5309L32.7402 64.3354L52.1574 43.5195L50.2725 41.4332L40.2795 50.312L33.0366 43.6025C37.719 35.6602 48.0084 31.5468 47.2616 19.3252C54.8364 25.3827 63.3714 29.01 61.4866 38.4578C65.7778 41.5043 69.6304 43.567 72.5939 46.5305C73.3296 47.203 73.9218 48.0173 74.3349 48.9244C74.748 49.8316 74.9735 50.8128 74.9978 51.8093C75.0222 52.8058 74.8449 53.7969 74.4766 54.7231C74.1083 55.6493 73.5567 56.4916 72.8547 57.1992C64.0115 67.2516 54.9312 77.0905 45.8391 87.0954C45.0449 82.6501 44.3929 78.596 43.5275 73.5106Z" fill="#FFB942"/>
</svg>
