<svg width="289" height="84" viewBox="0 0 289 84" fill="none" xmlns="http://www.w3.org/2000/svg">
<path d="M85.8341 59C84.736 59 83.8341 58.6667 83.1282 58C82.4615 57.2941 82.1281 56.4313 82.1281 55.4117V21.4111C82.1281 20.3915 82.4615 19.5484 83.1282 18.8817C83.8341 18.1758 84.6968 17.8229 85.7164 17.8229H104.834C105.854 17.8229 106.697 18.1562 107.364 18.8229C108.07 19.4503 108.423 20.2739 108.423 21.2935C108.423 22.1563 108.07 22.921 107.364 23.5877C106.697 24.2543 105.854 24.5877 104.834 24.5877H88.9518L89.4812 23.8818V35.7055L89.0694 34.9408H102.187C103.207 34.9408 104.05 35.2741 104.717 35.9408C105.423 36.5683 105.776 37.3918 105.776 38.4114C105.776 39.2742 105.423 40.0389 104.717 40.7056C104.05 41.3723 103.207 41.7056 102.187 41.7056H88.9518L89.4812 41.1762V55.4117C89.4812 56.4313 89.1087 57.2941 88.3635 58C87.6576 58.6667 86.8145 59 85.8341 59ZM117.584 59C116.564 59 115.721 58.6667 115.054 58C114.388 57.2941 114.054 56.4313 114.054 55.4117V31.1172C114.054 30.0976 114.388 29.2544 115.054 28.5877C115.721 27.8818 116.564 27.5289 117.584 27.5289C118.603 27.5289 119.446 27.8818 120.113 28.5877C120.78 29.2544 121.113 30.0976 121.113 31.1172V36.6467L120.701 32.7054C121.133 31.7643 121.682 30.9407 122.348 30.2348C123.054 29.4897 123.839 28.8819 124.701 28.4113C125.564 27.9014 126.486 27.5289 127.466 27.2936C128.447 27.0583 129.427 26.9407 130.407 26.9407C131.584 26.9407 132.564 27.274 133.349 27.9407C134.172 28.6073 134.584 29.3917 134.584 30.2936C134.584 31.5878 134.251 32.529 133.584 33.1172C132.917 33.6662 132.192 33.9408 131.407 33.9408C130.662 33.9408 129.976 33.8035 129.349 33.529C128.76 33.2545 128.074 33.1172 127.29 33.1172C126.584 33.1172 125.858 33.2937 125.113 33.6466C124.407 33.9604 123.741 34.4702 123.113 35.1761C122.525 35.882 122.035 36.7643 121.643 37.8232C121.29 38.8428 121.113 40.0585 121.113 41.4703V55.4117C121.113 56.4313 120.78 57.2941 120.113 58C119.446 58.6667 118.603 59 117.584 59ZM153.063 59.5882C149.729 59.5882 146.827 58.902 144.357 57.5294C141.925 56.1176 140.043 54.2156 138.709 51.8234C137.415 49.4312 136.768 46.7253 136.768 43.7056C136.768 40.1762 137.474 37.1761 138.886 34.7055C140.337 32.1956 142.219 30.274 144.533 28.9407C146.847 27.6073 149.298 26.9407 151.886 26.9407C153.886 26.9407 155.769 27.3524 157.533 28.176C159.337 28.9995 160.926 30.1368 162.298 31.5878C163.671 32.9996 164.749 34.6467 165.533 36.529C166.357 38.4114 166.769 40.4115 166.769 42.5291C166.73 43.4703 166.357 44.2351 165.651 44.8233C164.945 45.4115 164.122 45.7057 163.18 45.7057H140.71L138.945 39.8232H160.533L159.239 40.9997V39.4114C159.161 38.2742 158.749 37.2545 158.004 36.3526C157.298 35.4506 156.396 34.7447 155.298 34.2349C154.239 33.6859 153.102 33.4113 151.886 33.4113C150.71 33.4113 149.612 33.5682 148.592 33.8819C147.572 34.1957 146.69 34.7251 145.945 35.4702C145.2 36.2153 144.612 37.2153 144.18 38.4703C143.749 39.7252 143.533 41.3134 143.533 43.235C143.533 45.3527 143.964 47.1567 144.827 48.6469C145.729 50.0979 146.866 51.2156 148.239 51.9999C149.651 52.745 151.141 53.1176 152.71 53.1176C154.161 53.1176 155.318 52.9999 156.18 52.7646C157.043 52.5293 157.729 52.2548 158.239 51.9411C158.788 51.5881 159.278 51.294 159.71 51.0587C160.416 50.7057 161.082 50.5293 161.71 50.5293C162.573 50.5293 163.279 50.8234 163.828 51.4116C164.416 51.9999 164.71 52.6862 164.71 53.4705C164.71 54.5293 164.161 55.4901 163.063 56.3529C162.043 57.2157 160.612 57.9804 158.769 58.6471C156.925 59.2745 155.023 59.5882 153.063 59.5882ZM187.76 59.5882C184.427 59.5882 181.525 58.902 179.054 57.5294C176.622 56.1176 174.74 54.2156 173.407 51.8234C172.113 49.4312 171.466 46.7253 171.466 43.7056C171.466 40.1762 172.171 37.1761 173.583 34.7055C175.034 32.1956 176.917 30.274 179.23 28.9407C181.544 27.6073 183.995 26.9407 186.583 26.9407C188.583 26.9407 190.466 27.3524 192.231 28.176C194.035 28.9995 195.623 30.1368 196.995 31.5878C198.368 32.9996 199.446 34.6467 200.231 36.529C201.054 38.4114 201.466 40.4115 201.466 42.5291C201.427 43.4703 201.054 44.2351 200.348 44.8233C199.642 45.4115 198.819 45.7057 197.878 45.7057H175.407L173.642 39.8232H195.231L193.937 40.9997V39.4114C193.858 38.2742 193.446 37.2545 192.701 36.3526C191.995 35.4506 191.093 34.7447 189.995 34.2349C188.936 33.6859 187.799 33.4113 186.583 33.4113C185.407 33.4113 184.309 33.5682 183.289 33.8819C182.27 34.1957 181.387 34.7251 180.642 35.4702C179.897 36.2153 179.309 37.2153 178.877 38.4703C178.446 39.7252 178.23 41.3134 178.23 43.235C178.23 45.3527 178.662 47.1567 179.524 48.6469C180.426 50.0979 181.564 51.2156 182.936 51.9999C184.348 52.745 185.838 53.1176 187.407 53.1176C188.858 53.1176 190.015 52.9999 190.878 52.7646C191.74 52.5293 192.427 52.2548 192.936 51.9411C193.486 51.5881 193.976 51.294 194.407 51.0587C195.113 50.7057 195.78 50.5293 196.407 50.5293C197.27 50.5293 197.976 50.8234 198.525 51.4116C199.113 51.9999 199.407 52.6862 199.407 53.4705C199.407 54.5293 198.858 55.4901 197.76 56.3529C196.74 57.2157 195.309 57.9804 193.466 58.6471C191.623 59.2745 189.721 59.5882 187.76 59.5882ZM211.928 17.764C212.477 17.764 213.045 17.9209 213.634 18.2346C214.261 18.5091 214.732 18.8817 215.045 19.3523L229.34 41.3527L226.398 41.235L241.046 19.3523C241.791 18.2934 242.752 17.764 243.928 17.764C244.869 17.764 245.712 18.0974 246.458 18.764C247.203 19.4307 247.575 20.2935 247.575 21.3523V55.4117C247.575 56.4313 247.242 57.2941 246.575 58C245.909 58.6667 245.026 59 243.928 59C242.83 59 241.928 58.6667 241.222 58C240.556 57.2941 240.222 56.4313 240.222 55.4117V27.7054L242.516 28.2348L230.516 46.5292C230.163 46.9606 229.712 47.3331 229.163 47.6469C228.653 47.9606 228.124 48.0979 227.575 48.0586C227.065 48.0979 226.536 47.9606 225.987 47.6469C225.477 47.3331 225.045 46.9606 224.693 46.5292L213.457 28.7642L214.986 25.6465V55.4117C214.986 56.4313 214.673 57.2941 214.045 58C213.418 58.6667 212.594 59 211.575 59C210.594 59 209.79 58.6667 209.163 58C208.535 57.2941 208.222 56.4313 208.222 55.4117V21.3523C208.222 20.3719 208.575 19.5288 209.281 18.8229C210.026 18.117 210.908 17.764 211.928 17.764ZM270.654 59.5882C267.321 59.5882 264.419 58.902 261.948 57.5294C259.517 56.1176 257.634 54.2156 256.301 51.8234C255.007 49.4312 254.36 46.7253 254.36 43.7056C254.36 40.1762 255.066 37.1761 256.478 34.7055C257.929 32.1956 259.811 30.274 262.125 28.9407C264.438 27.6073 266.889 26.9407 269.478 26.9407C271.478 26.9407 273.36 27.3524 275.125 28.176C276.929 28.9995 278.517 30.1368 279.89 31.5878C281.262 32.9996 282.341 34.6467 283.125 36.529C283.949 38.4114 284.36 40.4115 284.36 42.5291C284.321 43.4703 283.949 44.2351 283.243 44.8233C282.537 45.4115 281.713 45.7057 280.772 45.7057H258.301L256.536 39.8232H278.125L276.831 40.9997V39.4114C276.752 38.2742 276.341 37.2545 275.595 36.3526C274.89 35.4506 273.988 34.7447 272.89 34.2349C271.831 33.6859 270.693 33.4113 269.478 33.4113C268.301 33.4113 267.203 33.5682 266.184 33.8819C265.164 34.1957 264.282 34.7251 263.536 35.4702C262.791 36.2153 262.203 37.2153 261.772 38.4703C261.34 39.7252 261.125 41.3134 261.125 43.235C261.125 45.3527 261.556 47.1567 262.419 48.6469C263.321 50.0979 264.458 51.2156 265.831 51.9999C267.242 52.745 268.733 53.1176 270.301 53.1176C271.752 53.1176 272.909 52.9999 273.772 52.7646C274.635 52.5293 275.321 52.2548 275.831 51.9411C276.38 51.5881 276.87 51.294 277.301 51.0587C278.007 50.7057 278.674 50.5293 279.301 50.5293C280.164 50.5293 280.87 50.8234 281.419 51.4116C282.007 51.9999 282.301 52.6862 282.301 53.4705C282.301 54.5293 281.752 55.4901 280.654 56.3529C279.635 57.2157 278.203 57.9804 276.36 58.6471C274.517 59.2745 272.615 59.5882 270.654 59.5882Z" fill="white"/>
<path fill-rule="evenodd" clip-rule="evenodd" d="M7.50726 49.4433L3.57477 45.5108L3.52342 45.4595L2.17147 44.1075L1.78733 43.7234C0.804306 42.7403 0.804249 41.1318 1.78733 40.1487L2.22656 39.7095L3.52342 38.4126L3.57477 38.3613L7.86004 34.076L34.9361 6.99997C39.5507 11.6146 38.7948 18.1557 34.3718 22.5786L15.3674 41.5831L15.1348 41.8156C14.4539 42.4966 14.4538 43.6107 15.1348 44.2917H15.135C15.816 44.9726 16.93 44.9728 17.611 44.2918L17.8435 44.0593L26.0265 35.8762L33.4394 43.2893L25.2564 51.4723L35.064 61.2797C39.3871 65.6028 39.3871 72.6767 35.0639 76.9999L17.3963 59.3323L9.98337 51.9194L7.50721 49.4432L7.50726 49.4433Z" fill="white"/>
<path fill-rule="evenodd" clip-rule="evenodd" d="M41.3497 35.3791L35.3562 41.3727L27.9432 33.9598L35.0233 26.8797L35.0551 26.8479C38.389 23.5139 44.5755 16.6395 39.4875 11.5515L44.9195 16.9835L52.3324 24.3964L52.2979 24.431L52.3179 24.4519C52.4764 24.5646 52.6277 24.6917 52.7696 24.8336L55.4613 27.5254C56.8434 28.9075 56.8433 31.1687 55.4613 32.5509C55.4234 32.5889 55.3848 32.6256 55.3455 32.6613L58.6985 36.0143L63.602 40.9177L63.8507 41.1665L64.846 42.1617C66.2025 43.5183 66.2352 45.7167 64.9452 47.1143L64.9473 47.1165L64.8458 47.2179L63.8506 48.2132L59.0173 53.0467L39.8698 72.194C43.402 68.662 38.3775 60.9701 38.3775 60.9701L52.6738 46.7033L52.8655 46.5116C53.5069 45.8702 53.5069 44.8209 52.8655 44.1795L52.8654 44.1794C52.2239 43.5381 51.1747 43.538 50.5333 44.1794L50.3416 44.371L36.5763 58.1363L29.9165 51.4765L43.8734 37.5196C44.5148 36.8782 44.5148 35.8289 43.8735 35.1876H43.8733C43.232 34.5461 42.1827 34.546 41.5413 35.1874L41.3496 35.3791L41.3497 35.3791Z" fill="white"/>
</svg>
