<svg width="184" height="184" viewBox="0 0 184 184" fill="none" xmlns="http://www.w3.org/2000/svg">
<path fill-rule="evenodd" clip-rule="evenodd" d="M19.7334 111.565L9.39654 101.229L9.26155 101.094L5.70787 97.5399L4.69812 96.5302C2.11418 93.9462 2.11403 89.718 4.69812 87.1339L5.85268 85.9794L9.26155 82.5705L9.39654 82.4355L20.6607 71.1714L91.8319 9.70545e-05C103.962 12.1299 101.975 29.3236 90.3488 40.9497L40.3942 90.9043L39.783 91.5155C37.993 93.3055 37.993 96.234 39.7829 98.024L39.7836 98.024C41.5735 99.814 44.5018 99.8143 46.2917 98.0243L46.903 97.4131L68.4126 75.9034L87.8977 95.3892L66.3881 116.899L92.1682 142.678C103.532 154.042 103.532 172.636 92.1679 184L45.7274 137.559L26.242 118.074L19.7332 111.565L19.7334 111.565Z" fill="#7622FF"/>
<path fill-rule="evenodd" clip-rule="evenodd" d="M108.691 74.5965L92.9362 90.351L73.4508 70.8656L92.0611 52.2552L92.1448 52.1715C100.908 43.408 117.17 25.338 103.796 11.964L118.074 26.2422L137.56 45.7277L137.469 45.8184L137.521 45.8734C137.938 46.1697 138.336 46.5038 138.709 46.8768L145.784 53.9523C149.417 57.5852 149.417 63.529 145.784 67.1622C145.684 67.2621 145.583 67.3587 145.48 67.4525L154.293 76.266L167.182 89.1551L167.836 89.8089L170.452 92.425C174.018 95.9908 174.104 101.77 170.713 105.443L170.719 105.449L170.452 105.716L167.836 108.332L155.131 121.037L104.801 171.367C114.085 162.083 100.878 141.864 100.878 141.864L138.457 104.363L138.961 103.859C140.647 102.173 140.647 99.4147 138.961 97.7288L138.961 97.7285C137.274 96.0429 134.516 96.0426 132.83 97.7285L132.327 98.2324L96.1435 134.415L78.6377 116.91L115.324 80.2228C117.01 78.5369 117.01 75.7787 115.325 74.0929L115.324 74.0929C113.638 72.4067 110.88 72.4065 109.194 74.0925L108.691 74.5964L108.691 74.5965Z" fill="#FFB942"/>
</svg>
