<svg width="624" height="726" viewBox="0 0 624 726" fill="none" xmlns="http://www.w3.org/2000/svg">
<path d="M453 466.72L538.35 487.49C548.66 490 544.29 505.87 533.98 503.36L448.62 482.59C438.31 480.08 442.69 464.21 453 466.72Z" fill="#FEC6A7"/>
<path d="M522.93 483.74L527.84 484.94L531.61 492.76L525.46 492.18L522.93 483.74Z" fill="#FE9A63"/>
<path d="M346.02 441.31C346.02 441.31 497.61 448.74 499.94 466.87C502.27 485 487.94 559.63 454.57 556.53C421.201 553.43 359.57 480.33 359.57 480.33L346.02 441.31Z" fill="#FFEBE3"/>
<path d="M318.51 471C268.9 497.23 234.43 551.6 241.59 608.25C242.88 618.43 258.37 614.92 257.1 604.87C250.82 555.2 283.36 507.53 325.9 485.04C334.9 480.26 327.56 466.21 318.51 471.04V471Z" fill="#FEC6A7"/>
<path d="M252.1 602.46L240.76 597C240.84 599.5 241.01 602 241.25 604.51L252.1 602.46Z" fill="#FE9A63"/>
<path d="M436.01 628V698L454.57 709H406.96C406.96 709 417.54 642.35 359.89 642.35C302.24 642.35 306.2 709 306.2 709H254.62L280.01 695.48L284.76 628H436.01Z" fill="#FEC6A7"/>
<path d="M415.76 711.2C413.89 708.07 410.571 705.27 406.821 705.15C403.761 705.06 403.751 700.3 406.821 700.39C412.291 700.56 417.121 704.19 419.821 708.8C421.401 711.44 417.29 713.8 415.71 711.2H415.76Z" fill="#42312A"/>
<path d="M294.76 708.8C297.51 704.19 302.35 700.56 307.82 700.39C310.89 700.3 310.88 705.06 307.82 705.15C304.07 705.27 300.74 708.07 298.82 711.2C297.25 713.83 293.13 711.44 294.71 708.8H294.76Z" fill="#42312A"/>
<path d="M343.88 423.68C343.88 423.68 427.76 487 435.22 628H284.76C284.76 628 277.63 459.77 343.88 423.68Z" fill="#FFEBE3"/>
<path d="M386.24 608.73C392.88 601.45 404.47 583.23 386.64 582.25C375.74 581.66 376.1 598.73 377.07 605.97C377.43 608.63 372.83 609.24 372.4 606.61C371.05 598.29 368.4 588.54 362.48 582.34C358.16 577.85 348.77 579.07 348.64 586.28C348.57 589.94 350.64 593.9 352.72 596.84C354.48 599.37 350.35 601.74 348.61 599.24C345.75 595.12 343.48 589.76 343.97 584.68C344.7 577.13 353.6 573.36 360.27 575.4C371.27 578.75 375.39 595.49 376.99 605.34L372.31 605.97C370.78 594.56 373.22 574.97 389.16 577.74C398.5 579.37 403.16 586.01 400.24 595.16C398.24 601.42 393.99 607.28 389.6 612.1C387.53 614.37 384.17 610.99 386.24 608.73Z" fill="#FFC8B3"/>
<path d="M332.32 609C330.269 603.854 327.48 599.033 324.04 594.69C322.38 592.75 319.88 590.25 317.53 592.5C315.39 594.56 312.44 599.27 315.99 601.5C318.61 603.09 316.22 607.21 313.59 605.61C304.78 600.22 312.77 583.61 322.15 587.35C329.66 590.35 334.05 600.78 336.91 607.78C338.07 610.62 333.47 611.85 332.32 609.05V609Z" fill="#FFC8B3"/>
<path d="M359.75 405.98L362.53 444H324.44L332.38 401.96L359.75 405.98Z" fill="#FEC6A7"/>
<path d="M360.24 412.71L360.93 422.13C351.55 419.85 347.06 410.44 345.02 403.81L351.79 404.81L360.24 412.71Z" fill="#FE9A63"/>
<path d="M370.021 450.31L362.531 427.45L353.26 444.11L328.411 423.08L313.34 457.05L362.531 485.37L370.021 450.31Z" fill="#FFEBE3"/>
<path d="M323.29 441.8L342.29 460.23L353.29 444.11L344.36 462.27L354.76 472.46L366.48 439.67C366.48 439.67 358.73 472.23 357.88 475.5L416.17 532.21C418.69 539.15 421.05 546.45 423.17 554.1C405.02 534.04 335.45 457.1 322.93 442.1L323.29 441.8Z" fill="#FFC8B3"/>
<path d="M446.01 712V703C446.01 700 451.01 700 451.01 703V712C451.01 715 446.01 715 446.01 712Z" fill="#42312A"/>
<path d="M404.94 713.5C405.013 714.758 405.578 715.936 406.515 716.778C407.451 717.621 408.682 718.06 409.94 718H453.94C454.575 718.073 455.218 718.012 455.827 717.819C456.436 717.626 456.997 717.307 457.474 716.882C457.951 716.457 458.333 715.936 458.594 715.353C458.856 714.77 458.991 714.139 458.991 713.5C458.991 712.861 458.856 712.23 458.594 711.647C458.333 711.064 457.951 710.543 457.474 710.118C456.997 709.693 456.436 709.374 455.827 709.181C455.218 708.988 454.575 708.927 453.94 709H409.94C408.682 708.94 407.451 709.379 406.515 710.222C405.578 711.064 405.013 712.242 404.94 713.5Z" fill="#FFE297"/>
<path d="M453.01 714H440.01V712H453.01C454.01 712 454.01 714 453.01 714Z" fill="#FFCF52"/>
<path d="M442.01 717H415.01C414.01 717 414.01 716 415.01 716H442.01C443.01 716 443.01 717 442.01 717Z" fill="#FFCF52"/>
<path d="M420.01 714H409.01C408.01 714 408.01 712 409.01 712H420.01V714Z" fill="#FFCF52"/>
<path d="M260.01 712V703C260.01 700 265.01 700 265.01 703V712C265.01 715 260.01 715 260.01 712Z" fill="#42312A"/>
<path d="M307.94 713.5C307.868 714.758 307.302 715.936 306.366 716.778C305.43 717.621 304.199 718.06 302.94 718H258.94C258.306 718.073 257.663 718.012 257.054 717.819C256.445 717.626 255.883 717.307 255.406 716.882C254.929 716.457 254.548 715.936 254.286 715.353C254.025 714.77 253.89 714.139 253.89 713.5C253.89 712.861 254.025 712.23 254.286 711.647C254.548 711.064 254.929 710.543 255.406 710.118C255.883 709.693 256.445 709.374 257.054 709.181C257.663 708.988 258.306 708.927 258.94 709H302.94C304.199 708.94 305.43 709.379 306.366 710.222C307.302 711.064 307.868 712.242 307.94 713.5Z" fill="#FFE297"/>
<path d="M258.01 712H271.01V714H258.01C257.01 714 257.01 712 258.01 712Z" fill="#FFCF52"/>
<path d="M269.01 716H296.01C297.01 716 297.01 717 296.01 717H269.01C268.01 717 268.01 716 269.01 716Z" fill="#FFCF52"/>
<path d="M291.01 712H302.01C303.01 712 303.01 714 302.01 714H291.01C290.01 714 290.01 712 291.01 712Z" fill="#FFCF52"/>
<path d="M284.76 628.19C259.37 670.19 275.24 698 275.24 698H354.59L357.9 684.44L360.14 698H435.52C457.74 674 435.78 628.19 435.78 628.19L440.29 602L274.06 608L284.76 628.19Z" fill="#3E5469"/>
<path d="M362.53 604.81L341.33 605.56L353.26 628.19L362.53 604.81Z" fill="#2A3947"/>
<path d="M419.66 602.77L398.23 628.19L393.87 603.69L419.66 602.77Z" fill="#2A3947"/>
<path d="M393.87 698L359.89 646.83L357.91 684.44L360.14 698H393.87Z" fill="#2A3947"/>
<path d="M425.21 698L417.281 663.09L408.551 698H425.21Z" fill="#2A3947"/>
<path d="M359.811 646.83L357.87 684.44L354.6 698H322.86L359.811 646.83Z" fill="#2A3947"/>
<path d="M303.82 698L299.45 663.09L287.55 698H303.82Z" fill="#2A3947"/>
<path d="M281.01 625H440.01V633H281.01V625Z" fill="#42312A"/>
<path d="M318.65 443.49C318.65 443.49 183.28 533.67 242.17 565.41C301.06 597.15 323.26 550.25 325.24 499.14C327.22 448.03 318.65 443.49 318.65 443.49Z" fill="#FFEBE3"/>
<path d="M237.57 524.27C255.37 543.08 283.57 554.08 308.93 546.27C311.87 545.37 313.12 549.96 310.19 550.86C283.3 559.11 253.19 547.6 234.19 527.6C232.09 525.37 235.45 522 237.56 524.23L237.57 524.27Z" fill="#FFC8B3"/>
<path d="M476.5 462.22C477.81 465.07 477.1 469.22 476.93 472.22C476.457 479.81 475.455 487.359 473.93 494.81C470.22 513.41 463.19 532.39 449.93 546.33C447.81 548.56 444.45 545.18 446.57 542.96C459.07 529.83 465.38 512.11 469.11 494.67C470.584 487.766 471.586 480.77 472.11 473.73C472.27 471.57 472.36 469.41 472.38 467.25C472.38 466.39 471.99 463.64 472.43 464.6C471.15 461.84 475.26 459.42 476.54 462.2L476.5 462.22Z" fill="#FFC8B3"/>
<path d="M146.76 256C146.76 378.23 242.31 414.68 360.19 414.68C478.07 414.68 573.58 378.26 573.58 256C573.58 133.74 528.67 40.8098 411.76 25.9998C140.37 -8.22017 146.76 133.8 146.76 256Z" fill="#FEC6A7"/>
<path d="M424.66 210.45C424.767 209.762 424.814 209.066 424.8 208.37C424.78 206.341 424.491 204.323 423.94 202.37C423.063 199.228 421.648 196.261 419.76 193.6C418.573 191.927 417.234 190.367 415.76 188.94C414.088 187.357 412.274 185.931 410.34 184.68C408.243 183.33 406.035 182.159 403.74 181.18C401.314 180.163 398.817 179.32 396.27 178.66C390.894 177.304 385.375 176.599 379.83 176.56C374.091 176.487 368.356 176.912 362.69 177.83C359.84 178.3 356.98 178.83 354.17 179.48C352.75 179.8 351.36 180.15 349.95 180.48L346.03 181.48C343.58 182.11 341.03 182.73 338.51 183.32C335.99 183.91 333.51 184.46 331 184.99C326 185.99 321.16 186.86 316.47 187.47C312.023 188.054 307.545 188.371 303.06 188.42C299.137 188.469 295.218 188.134 291.36 187.42C288.112 186.82 284.958 185.791 281.98 184.36C279.593 183.197 277.376 181.713 275.39 179.95C274.035 178.745 272.805 177.404 271.72 175.95C271.317 175.408 270.95 174.84 270.62 174.25C270.552 174.948 270.552 175.652 270.62 176.35C270.774 178.372 271.226 180.36 271.96 182.25C273.121 185.295 274.814 188.109 276.96 190.56C279.831 193.787 283.238 196.494 287.03 198.56C291.455 200.954 296.19 202.724 301.1 203.82C306.414 205.033 311.84 205.686 317.29 205.77C322.974 205.869 328.657 205.534 334.29 204.77C337.13 204.38 339.98 203.94 342.79 203.36C345.6 202.78 348.41 202.16 351.28 201.46L359.05 199.36C361.54 198.7 364.05 198.09 366.46 197.52C371.35 196.4 376.15 195.45 380.76 194.84C385.116 194.224 389.512 193.94 393.91 193.99C397.729 194.027 401.53 194.523 405.23 195.47C408.385 196.27 411.399 197.544 414.17 199.25C416.435 200.657 418.503 202.359 420.32 204.31C421.558 205.656 422.679 207.104 423.67 208.64C424.034 209.224 424.365 209.829 424.66 210.45Z" fill="#3E2E27"/>
<path d="M484.49 207.16C484.716 206.627 484.969 206.106 485.25 205.6C485.98 204.24 486.83 202.948 487.79 201.74C489.176 200.008 490.775 198.46 492.55 197.13C494.698 195.576 497.054 194.333 499.55 193.44C504.94 191.49 511.77 190.75 519.44 190.94C523.27 191.04 527.29 191.33 531.44 191.75C533.52 192.01 535.6 192.21 537.72 192.52C538.78 192.67 539.84 192.83 540.9 192.96L544.46 193.41C545.63 193.54 546.69 193.69 547.95 193.79C549.21 193.89 550.45 193.98 551.69 194.07C552.93 194.16 554.17 194.22 555.39 194.24C556.61 194.26 557.82 194.31 559.04 194.31C563.866 194.284 568.683 193.896 573.45 193.15C578.052 192.399 582.566 191.179 586.92 189.51C590.956 187.966 594.75 185.855 598.19 183.24C601.155 180.993 603.703 178.245 605.72 175.12C607.216 172.74 608.276 170.112 608.85 167.36C609.208 165.658 609.299 163.91 609.12 162.18C609.067 161.584 608.957 160.995 608.79 160.42C608.545 160.94 608.268 161.444 607.96 161.93C607.143 163.227 606.198 164.44 605.14 165.55C603.6 167.133 601.862 168.511 599.97 169.65C597.615 171.007 595.099 172.062 592.48 172.79C589.378 173.646 586.205 174.225 583 174.52C579.324 174.855 575.632 174.991 571.94 174.93C568.02 174.85 563.94 174.6 559.75 174.29C557.67 174.07 555.5 173.93 553.44 173.68C552.44 173.57 551.36 173.44 550.32 173.35C549.28 173.26 548.07 173.07 546.95 172.94L543.65 172.56L539.99 172.17C538.78 172.04 537.55 171.95 536.32 171.9C535.09 171.85 533.87 171.75 532.64 171.74C527.752 171.63 522.864 171.944 518.03 172.68C513.329 173.371 508.73 174.641 504.34 176.46C500.236 178.126 496.44 180.469 493.11 183.39C490.273 185.88 487.935 188.887 486.22 192.25C484.982 194.761 484.19 197.468 483.88 200.25C483.693 201.965 483.744 203.698 484.03 205.4C484.128 206 484.282 206.589 484.49 207.16Z" fill="#3E2E27"/>
<path d="M518.04 76.91C518.04 76.91 536.28 110 411.1 102.67C347.57 98.94 161 0 177.94 199C187.06 306.08 139.94 240 139.94 240C139.94 240 78.9405 0 293.94 0C508.94 0 518.04 76.91 518.04 76.91Z" fill="#B0B5BA"/>
<path d="M145.88 177.85C145.88 177.85 21.3603 91.4399 2.3103 185.85C-19.3797 293.4 161 271.15 161 271.15L145.88 177.85Z" fill="#FEC6A7"/>
<path d="M119.76 244.17C119.76 244.17 100.76 154.78 56.2903 181.23C11.8203 207.68 51.5103 269.56 119.76 244.17Z" fill="#FFA287"/>
<path d="M523.94 284H424.94C424.94 284 433.94 378.5 469.94 375.5C505.94 372.5 523.94 284 523.94 284Z" fill="#3E2E27"/>
<path d="M467.94 309C507.62 314.77 493.44 351.68 482.45 371.8C478.761 374.43 474.449 376.05 469.94 376.5C449.48 378.21 437.74 348.4 431.42 322.36C438.6 312.69 449.98 306.39 467.94 309Z" fill="#F2532E"/>
<path d="M332.28 244.07C332.28 245.205 332.617 246.315 333.248 247.259C333.878 248.203 334.775 248.939 335.824 249.373C336.872 249.808 338.027 249.921 339.14 249.7C340.253 249.478 341.276 248.932 342.079 248.129C342.882 247.326 343.428 246.303 343.65 245.19C343.871 244.076 343.758 242.922 343.323 241.873C342.889 240.825 342.153 239.928 341.209 239.297C340.265 238.667 339.156 238.33 338.02 238.33C337.266 238.329 336.519 238.476 335.822 238.764C335.125 239.052 334.492 239.475 333.959 240.008C333.425 240.542 333.003 241.175 332.715 241.872C332.427 242.569 332.279 243.316 332.28 244.07Z" fill="#FFA287"/>
<path d="M306.61 289.67C298.878 289.67 292.61 283.402 292.61 275.67C292.61 267.938 298.878 261.67 306.61 261.67C314.342 261.67 320.61 267.938 320.61 275.67C320.61 283.402 314.342 289.67 306.61 289.67Z" fill="#FFA287"/>
<path d="M299.61 250.33C295.744 250.33 292.61 247.196 292.61 243.33C292.61 239.464 295.744 236.33 299.61 236.33C303.476 236.33 306.61 239.464 306.61 243.33C306.61 247.196 303.476 250.33 299.61 250.33Z" fill="#FFA287"/>
<path d="M265.61 259.5C265.61 260.918 266.031 262.304 266.819 263.484C267.606 264.663 268.726 265.582 270.036 266.124C271.346 266.667 272.788 266.809 274.179 266.532C275.57 266.256 276.847 265.573 277.85 264.57C278.853 263.567 279.536 262.29 279.812 260.899C280.089 259.508 279.947 258.066 279.404 256.756C278.862 255.446 277.943 254.326 276.764 253.538C275.585 252.751 274.198 252.33 272.78 252.33C270.879 252.33 269.055 253.086 267.71 254.43C266.366 255.775 265.61 257.598 265.61 259.5Z" fill="#FFA287"/>
<path d="M549.94 238C546.257 238 543.27 235.014 543.27 231.33C543.27 227.646 546.257 224.66 549.94 224.66C553.624 224.66 556.61 227.646 556.61 231.33C556.61 235.014 553.624 238 549.94 238Z" fill="#FFA287"/>
<path d="M541.94 272.67C534.943 272.67 529.27 266.998 529.27 260C529.27 253.003 534.943 247.33 541.94 247.33C548.938 247.33 554.61 253.003 554.61 260C554.61 266.998 548.938 272.67 541.94 272.67Z" fill="#FFA287"/>
<path d="M564.61 251.33C562.401 251.33 560.61 249.539 560.61 247.33C560.61 245.121 562.401 243.33 564.61 243.33C566.819 243.33 568.61 245.121 568.61 247.33C568.61 249.539 566.819 251.33 564.61 251.33Z" fill="#FFA287"/>
<path d="M405.28 154.67C407.28 154 427.79 118.67 377.53 120C327.27 121.33 281.59 160.42 281.59 160.42L405.28 154.67Z" fill="#3E2E27"/>
<path d="M554.94 146H474.94C474.94 146 440.18 116.85 474.94 114C512.28 110.94 554.94 146 554.94 146Z" fill="#3E2E27"/>
<path d="M484.49 216.33C498.49 215.63 508.32 224.99 506.43 239.38C503.72 260 482.03 268.38 464.43 259.65C458.65 256.78 463.72 248.16 469.43 251.02C481.6 257.02 495.53 250.65 496.68 236.64C497.36 228.4 491.26 225.99 484.45 226.33C478 226.66 478.04 216.66 484.45 216.33H484.49Z" fill="#FFA287"/>
<path d="M206.94 59.27C206.94 59.27 281.94 162.49 225.94 167.79C169.94 173.09 206.94 59.27 206.94 59.27Z" fill="#FFEBE3"/>
<path d="M525.65 495.08C525.65 495.08 524.07 475.79 541.89 470.82C559.71 465.85 571.49 472.48 574.89 486.67C581.89 515.49 545.45 523.47 533.56 509.89L525.65 495.08Z" fill="#FEC6A7"/>
<path d="M558.29 715.68C559.91 713.39 559.91 713.39 555.29 692.15C553.45 683.65 551.57 675.21 551.21 673.58C547.87 644.58 545.82 600.45 551.7 592.58C553.22 590.651 554.299 588.411 554.86 586.02C555.422 583.629 555.452 581.144 554.95 578.74C552.54 567.48 539.16 559.74 537.64 558.88L532.28 568.49C535 570.02 543.04 575.62 544.19 581.05C544.384 581.927 544.366 582.838 544.138 583.708C543.91 584.577 543.479 585.38 542.88 586.05C539.73 590.28 535.73 600.17 537.34 637.16C538.19 656.78 540.34 675.02 540.34 675.16L540.43 675.73C544.07 692.08 548.08 710.64 548.33 712.83C548.239 711.588 548.594 710.354 549.33 709.35L558.29 715.68Z" fill="#E3BE5B"/>
<path d="M537.07 724C542.85 714.712 547.837 704.954 551.98 694.83C561.04 672.4 562.11 655.19 555.15 643.68C544.74 626.44 559.99 596.4 566.75 586.28L567.96 584.46L562.28 550.77L551.43 552.6L556.43 582.05C551.15 590.61 531.43 625.59 545.77 649.36C556.21 666.64 536.37 704.8 527.85 718.04L537.07 724Z" fill="#FFD566"/>
<path d="M611.87 714.36L617.02 704.64C604.81 698.15 573.57 676.64 575.67 655.55C579.1 621.11 572.8 594.14 570.18 584.83L592.68 564L585.21 555.92L557.56 581.48L558.71 584.86C558.81 585.15 568.71 614.91 564.71 654.41C561.46 687.25 609.76 713.27 611.87 714.36Z" fill="#E3BE5B"/>
<path d="M562.271 514.512L564.005 585.491L549.01 585.857L547.275 514.878L562.271 514.512Z" fill="#FFE297"/>
<path d="M566.227 514.433L566.373 520.431L544.38 520.968L544.233 514.97L566.227 514.433Z" fill="#FFECBA"/>
<path d="M560.46 444.57L545.42 442.81L547.13 512.79L562.18 514.55L560.46 444.57Z" fill="#FFE297"/>
<path d="M566.144 509.418L566.266 514.417L544.273 514.954L544.151 509.956L566.144 509.418Z" fill="#FFECBA"/>
<path d="M564.516 444.461L564.638 449.46L542.645 449.997L542.523 444.999L564.516 444.461Z" fill="#FFECBA"/>
<path d="M558.804 373.559L560.539 444.538L545.544 444.905L543.809 373.926L558.804 373.559Z" fill="#FFE297"/>
<path d="M564.461 439.429L564.583 444.427L542.59 444.965L542.468 439.966L564.461 439.429Z" fill="#FFECBA"/>
<path d="M562.595 373.543L562.719 378.541L540.725 379.083L540.602 374.084L562.595 373.543Z" fill="#FFECBA"/>
<path d="M557.011 302.606L558.745 373.584L543.75 373.951L542.015 302.972L557.011 302.606Z" fill="#FFE297"/>
<path d="M562.638 368.486L562.76 373.484L540.766 374.022L540.644 369.023L562.638 368.486Z" fill="#FFECBA"/>
<path d="M561.069 302.484L561.191 307.483L539.197 308.02L539.075 303.022L561.069 302.484Z" fill="#FFECBA"/>
<path d="M587.98 710.88L594.64 702.12C586.31 695.77 564.64 676.12 564.37 661.32C564.3 657.14 565.98 653.78 569.67 650.75C595.11 629.85 579.79 593.04 574.92 583.01L589.92 550.3L579.92 545.71L562.62 583.35L563.96 585.78C564.17 586.16 584.63 624.2 562.66 642.25C556.42 647.37 553.2 654.04 553.34 661.54C553.76 684.22 584.48 708.22 587.98 710.88Z" fill="#FFD566"/>
<path d="M523.19 721.58C530.832 716.194 537.546 709.601 543.07 702.06C554.93 685.54 556.56 668.36 547.79 652.36C538.62 635.62 537.46 619.11 544.36 603.29C547.414 596.199 551.851 589.787 557.41 584.43L560.22 581.98L548.41 548.4L538.03 552.05L547.45 578.84C541.961 584.738 537.505 591.52 534.27 598.9C528.55 612.04 524.58 632.9 538.15 657.64C554.32 687.15 517.47 712.17 517.09 712.42L523.19 721.58Z" fill="#E3BE5B"/>
<path d="M617.62 709.22L623.26 699.78C603.04 687.69 574.34 665.86 573.85 655.16C573.85 654.28 573.92 653.23 575.68 651.95C586.94 643.76 592.68 633.95 592.75 622.95C592.85 604.24 576.15 587.84 568.81 581.54L580.76 552.3L570.58 548.15L555.52 585.07L558.93 587.61C559.16 587.78 581.93 605 581.79 622.88C581.79 630.35 577.64 636.95 569.25 643.05C567.194 644.425 565.53 646.31 564.419 648.52C563.308 650.729 562.788 653.189 562.91 655.66C563.76 676.06 608.64 703.86 617.62 709.22Z" fill="#FFE399"/>
<path d="M502.4 714.8C503.82 714.41 537.2 705.01 545.25 683.07C548.86 673.23 546.93 662.74 539.53 651.9C516.88 618.75 555.44 589.18 557.1 587.9L561.56 584.54L541.56 558.82L532.87 565.57L546.19 582.7C539.876 588.372 534.401 594.914 529.93 602.13C518.33 621.27 518.5 640.61 530.42 658.06C535.78 665.91 537.25 672.83 534.91 679.22C529.86 693.02 507.61 701.9 499.46 704.16L502.4 714.8Z" fill="#FFD566"/>
<path d="M570.88 716L579.3 708.92C579.07 708.65 555.64 680.08 566.57 651.52C575.92 627.06 567.38 594.9 564.4 583.86L569.4 546.07L558.49 544.64L554.02 578.64C553.435 579.417 553.047 580.324 552.89 581.284C552.734 582.244 552.812 583.227 553.12 584.15C553.25 584.68 553.46 585.45 553.72 586.43C560.87 612.85 561.72 633.43 556.32 647.6C543.03 682.29 569.76 714.68 570.88 716Z" fill="#FFD566"/>
<path d="M520.73 725.68L562.42 650.9L559.27 582.82L550.79 544.22L540.05 546.58L548.32 584.26L551.29 648.28L511.13 720.32L520.73 725.68Z" fill="#FFE399"/>
<path d="M581.241 580.068L581.363 585.067L536.346 586.167L536.224 581.169L581.241 580.068Z" fill="#FFECBA"/>
<path d="M584.243 652.063L584.365 657.061L525.393 658.502L525.271 653.504L584.243 652.063Z" fill="#FFECBA"/>
<path d="M552.23 495.53C551.99 496.53 547.6 506.87 551.73 512.64C555.86 518.41 585.52 524.36 574.93 486.64C574.93 486.64 560.38 482.32 559.7 481.82C559.02 481.32 552.86 485.51 552.86 485.51L552.23 495.53Z" fill="#FEC6A7"/>
<path d="M563.34 517.69C566.75 517.69 571.5 516.8 574.73 512.54C578.73 507.24 579.07 498.47 575.73 486.46L575.61 486.04L575.19 485.91C569.79 484.31 560.93 481.6 560.19 481.19C560.016 481.073 559.81 481.013 559.6 481.02C558.31 481.02 554.19 483.72 552.47 484.88L552.15 485.1L551.5 495.4C551.5 495.52 551.4 495.71 551.31 495.98C550.31 498.87 547.31 507.67 551.15 513.1C552.7 515.36 557.76 517.69 563.34 517.69ZM574.28 487.31C577.35 498.44 577.06 506.83 573.46 511.58C570.63 515.32 566.39 516.11 563.34 516.11C558.46 516.11 553.73 514.11 552.34 512.18C550.07 509.02 550.2 503.74 552.71 496.5C552.84 496.11 552.93 495.84 552.96 495.71V495.58L553.57 485.98C555.397 484.664 557.354 483.538 559.41 482.62C561.05 483.33 569.12 485.77 574.28 487.31Z" fill="#FF9270"/>
<path d="M542.47 473.33C542.47 473.33 582.35 472.71 582.59 475.88C582.83 479.05 582.93 493.24 558.11 486.99C558.11 486.99 560.59 496.58 541.98 495.58L542.47 473.33Z" fill="#FEC6A7"/>
<path d="M544.62 496.44C550.95 496.44 555.26 495.08 557.48 492.37C558.488 491.15 559.03 489.612 559.01 488.03C568.57 490.27 575.47 489.67 579.53 486.26C583.32 483.07 583.53 478.35 583.38 475.83C583.3 474.75 583.18 473.12 562.46 472.62C552.56 472.39 542.56 472.54 542.46 472.54V474.13C560.46 473.84 579.94 474.5 581.79 476.07C581.94 478.33 581.68 482.36 578.49 485.07C574.68 488.27 567.89 488.67 558.28 486.26L556.99 485.93L557.32 487.22C557.457 487.959 557.429 488.718 557.237 489.445C557.045 490.171 556.694 490.846 556.21 491.42C554.7 493.24 551.03 495.3 542.01 494.81L541.92 496.4C542.87 496.42 543.76 496.44 544.62 496.44Z" fill="#FF9270"/>
<path d="M562.32 505.58C566.01 505.58 569.85 505.01 572.82 503.23C574.078 502.495 575.165 501.5 576.008 500.312C576.851 499.124 577.432 497.77 577.71 496.34L576.16 496C575.924 497.217 575.432 498.369 574.717 499.381C574.001 500.393 573.079 501.242 572.01 501.87C564.62 506.3 550.58 502.38 550.44 502.34L550 503.87C554.021 504.943 558.159 505.517 562.32 505.58Z" fill="#FF9270"/>
<path d="M241.6 603.77C241.6 603.77 225.19 614.04 231.87 631.29C238.55 648.54 250.87 654.03 264.33 648.29C291.6 636.64 276.21 602.69 258.22 601.29L241.6 603.77Z" fill="#FEC6A7"/>
</svg>
